<svg width="41" height="39" viewBox="0 0 41 39" fill="none" xmlns="http://www.w3.org/2000/svg">
<path d="M40.3522 21.3391C40.0569 19.2913 38.4497 17.6826 36.4038 17.387V16.175C36.4038 12.831 33.8643 10.1084 30.7427 10.1084C27.7109 10.1084 25.1727 12.7484 25.0815 15.9937H25.1201L25.0815 16.0003V29.1381C25.0815 33.3381 21.9445 36.7487 18.0882 36.7487C14.232 36.7487 11.095 33.3334 11.095 29.1381V28.0001C12.0607 28.0001 13.0931 27.2995 13.0931 25.3335V23.6569C17.3676 22.5629 20.4193 18.889 20.4193 14.7237V13.3337H19.0873L19.0593 4.65717C19.0496 3.05111 17.8983 1.6798 16.3193 1.39389C15.9787 0.34949 14.8567 -0.220834 13.8132 0.120161C12.7698 0.461072 12.2 1.58414 12.5407 2.62862C12.8813 3.67302 14.0033 4.24335 15.0468 3.90235C15.6055 3.71977 16.0548 3.29903 16.274 2.7532C17.1273 2.9962 17.7183 3.77319 17.7253 4.66117L17.7552 13.3337H16.4232V14.743C16.3701 17.0619 14.8169 19.077 12.5896 19.7169C11.3978 20.0954 10.1182 20.0954 8.92644 19.7169C6.70168 19.0749 5.15201 17.0601 5.10081 14.743V13.3337H3.10275V4.66717C3.10658 3.7661 3.71199 2.97878 4.58132 2.74454C4.98667 3.77744 6.15179 4.28576 7.18371 3.88002C8.21563 3.47428 8.72347 2.30796 8.31811 1.27514C7.91276 0.242325 6.74755 -0.266083 5.71572 0.13966C5.15659 0.359574 4.72518 0.818483 4.54002 1.39056C2.94382 1.66355 1.77512 3.04628 1.7707 4.66717V13.3337H0.43866V14.7203C0.43866 18.8903 3.49237 22.5656 7.7649 23.6569V25.3335C7.7649 27.2995 8.79723 28.0001 9.76297 28.0001V29.1381C9.76297 34.0714 13.4974 38.082 18.0882 38.082C22.6791 38.082 26.4135 34.0667 26.4135 29.1381V16.0323C26.4801 13.5024 28.4236 11.4437 30.7427 11.4437C33.1297 11.4437 35.0718 13.5664 35.0718 16.177V17.387C32.5233 17.7551 30.7556 20.1215 31.1235 22.6724C31.4913 25.2233 33.8554 26.9927 36.4038 26.6245C38.9523 26.2563 40.72 23.8899 40.3522 21.3391ZM14.4251 2.6672C14.0573 2.6672 13.7591 2.36871 13.7591 2.00055C13.7591 1.63239 14.0573 1.33389 14.4251 1.33389C14.7929 1.33389 15.0911 1.63239 15.0911 2.00055C15.0911 2.36871 14.7929 2.6672 14.4251 2.6672ZM6.43286 1.33389C6.80067 1.33389 7.09888 1.63239 7.09888 2.00055C7.09888 2.36871 6.80067 2.6672 6.43286 2.6672C6.06505 2.6672 5.76683 2.36871 5.76683 2.00055C5.76683 1.63239 6.06505 1.33389 6.43286 1.33389ZM1.7707 14.7203V14.667H3.76877V14.743C3.81872 17.6406 5.74461 20.1693 8.52283 20.9849C9.97867 21.4463 11.5413 21.4463 12.9972 20.9849C15.7767 20.1703 17.7044 17.6416 17.7552 14.743V14.667H19.0873V14.7203C19.0873 18.429 16.2314 21.6922 12.2938 22.4816C11.3692 22.6669 10.4222 22.7134 9.4839 22.6196C9.17504 22.5896 8.868 22.5431 8.56413 22.4802C4.62661 21.6922 1.7707 18.429 1.7707 14.7203ZM9.76297 26.6668C9.16355 26.6668 9.09694 25.7335 9.09694 25.3335V23.9189C9.15023 23.9255 9.20484 23.9282 9.25879 23.9335C9.32539 23.9409 9.39199 23.9462 9.45859 23.9522C9.77362 23.9802 10.0913 23.9989 10.4117 23.9995H10.445C10.7647 23.9995 11.0817 23.9802 11.3947 23.9522C11.4613 23.9462 11.5319 23.9409 11.6005 23.9335C11.6531 23.9275 11.7078 23.9255 11.7604 23.9189V25.3335C11.7604 25.7335 11.6938 26.6668 11.0943 26.6668H9.76297ZM35.7378 25.3335C33.8987 25.3335 32.4077 23.8411 32.4077 22.0002C32.4077 20.1593 33.8987 18.667 35.7378 18.667C37.577 18.667 39.0679 20.1593 39.0679 22.0002C39.0658 23.8403 37.576 25.3314 35.7378 25.3335Z" fill="#BA5EFF"/>
</svg>
