<svg width="12" height="18" viewBox="0 0 12 18" fill="none" xmlns="http://www.w3.org/2000/svg">
<path d="M9.49219 5.83594C9.49219 3.79515 7.83577 2.10938 5.80078 2.10938C3.76843 2.10938 2.10938 3.7928 2.10938 5.83594C2.10938 7.87138 3.76534 9.52734 5.80078 9.52734C7.83622 9.52734 9.49219 7.87138 9.49219 5.83594ZM3.16406 5.83594C3.16406 4.36264 4.34689 3.16406 5.80078 3.16406C7.25467 3.16406 8.4375 4.36264 8.4375 5.83594C8.4375 7.28982 7.25467 8.47266 5.80078 8.47266C4.34689 8.47266 3.16406 7.28982 3.16406 5.83594Z" fill="#BA5EFF"/>
<path d="M11.6016 5.83594C11.6016 2.6363 9.00418 0 5.80078 0C2.77682 0 0 2.41587 0 5.83594C0 7.9683 2.08779 11.1906 3.3274 12.9612C1.94938 13.2382 0 13.9534 0 15.3633C0 17.3795 3.75543 18 5.80078 18C7.84631 18 11.6016 17.3795 11.6016 15.3633C11.6016 13.9533 9.65201 13.2382 8.27416 12.9612C9.50741 11.1997 11.6016 7.97077 11.6016 5.83594ZM1.05469 5.83594C1.05469 2.88271 3.51826 1.05469 5.80078 1.05469C8.41778 1.05469 10.5469 3.19954 10.5469 5.83594C10.5469 8.0692 7.42634 12.4714 5.80075 14.5246C4.17502 12.4718 1.05469 8.07057 1.05469 5.83594ZM10.5469 15.3633C10.5469 16.2443 7.96426 16.9453 5.80078 16.9453C3.64018 16.9453 1.05469 16.2438 1.05469 15.3633C1.05469 14.9436 1.99673 14.2159 4.01062 13.912C4.77977 14.9557 5.35869 15.6562 5.39476 15.6998C5.49492 15.8207 5.64377 15.8906 5.80078 15.8906C5.95779 15.8906 6.10664 15.8207 6.2068 15.6998C6.24287 15.6562 6.82179 14.9557 7.59094 13.912C9.60483 14.2159 10.5469 14.9436 10.5469 15.3633Z" fill="#BA5EFF"/>
</svg>
