<svg width="41" height="33" viewBox="0 0 41 33" fill="none" xmlns="http://www.w3.org/2000/svg">
<path d="M37.7933 0H26.4256C26.1022 0 25.8402 0.262345 25.8402 0.58594C25.8402 0.909535 26.1022 1.17188 26.4256 1.17188H37.7933C38.8661 1.17188 39.739 2.0436 39.739 3.11509V25.6227C39.739 26.6942 38.8662 27.5659 37.7933 27.5659H4.0619C2.99026 27.5659 2.11843 26.6942 2.11843 25.6227V3.11509C2.11843 2.0436 2.99026 1.17188 4.0619 1.17188H23.7219C24.0453 1.17188 24.3073 0.909535 24.3073 0.58594C24.3073 0.262345 24.0453 0 23.7219 0H4.0619C2.3447 0 0.947662 1.39743 0.947662 3.11509V25.6227C0.947662 27.3403 2.3447 28.7378 4.0619 28.7378H4.13581V31.1058C4.13581 31.9608 4.83109 32.6565 5.68575 32.6565H14.3166C15.1713 32.6565 15.8666 31.9609 15.8666 31.1058V28.7378H25.9906V31.1058C25.9906 31.9608 26.6849 32.6565 27.5384 32.6565H36.1714C37.0261 32.6565 37.7214 31.9609 37.7214 31.1058V28.7378H37.7931C39.5116 28.7378 40.9096 27.3403 40.9096 25.6227V3.11509C40.9098 1.39743 39.5117 0 37.7933 0ZM14.696 31.1057C14.696 31.3145 14.5259 31.4845 14.3168 31.4845H5.68582C5.47673 31.4845 5.30665 31.3146 5.30665 31.1057V28.7376H14.696V31.1057ZM36.5508 31.1057C36.5508 31.3145 36.3806 31.4845 36.1716 31.4845H27.5385C27.3341 31.4845 27.1615 31.3111 27.1615 31.1057V28.7376H36.5508V31.1057H36.5508Z" fill="#BA5EFF"/>
<path d="M26.7376 24.114H18.4253C18.102 24.114 17.84 24.3763 17.84 24.6999C17.84 25.0235 18.102 25.2859 18.4253 25.2859H26.7376C28.4561 25.2859 29.8541 23.8875 29.8541 22.1687V6.56906C29.8541 4.85023 28.4561 3.45178 26.7376 3.45178H7.51561C5.79716 3.45178 4.39911 4.85015 4.39911 6.56906V22.1686C4.39911 23.8874 5.79716 25.2858 7.51561 25.2858H15.85C16.1733 25.2858 16.4353 25.0234 16.4353 24.6998C16.4353 24.3762 16.1733 24.1139 15.85 24.1139H7.51561C6.44272 24.1139 5.56987 23.2412 5.56987 22.1686V14.9547H7.40267C7.6682 14.9547 7.69981 14.9882 7.79557 15.0897L9.15077 16.5114C9.19433 16.5572 9.22922 16.5964 9.25817 16.6288C9.37361 16.7581 9.54759 16.9528 9.84629 16.9528C9.84949 16.9528 9.85276 16.9528 9.85596 16.9527C10.1606 16.9485 10.3318 16.7458 10.4451 16.6117C10.4718 16.5801 10.5037 16.5422 10.5434 16.4977L11.5788 15.3342L13.3545 18.1088C13.5163 18.3582 13.7843 18.504 14.0761 18.4999C14.3625 18.4954 14.6238 18.3435 14.7733 18.0967L17.1265 14.2692L19.4777 18.0931C19.6291 18.3433 19.8905 18.4954 20.1769 18.4998C20.1812 18.4999 20.1855 18.4999 20.1899 18.4999C20.475 18.4999 20.7392 18.3542 20.9005 18.1055L22.6742 15.3341L23.71 16.4979C23.7498 16.5426 23.782 16.5809 23.8088 16.6127C23.9212 16.7461 24.0911 16.9478 24.3951 16.9525C24.3988 16.9525 24.4024 16.9526 24.4061 16.9526C24.7034 16.9526 24.8767 16.7596 24.9919 16.6313C25.0212 16.5987 25.0566 16.5591 25.1017 16.5119L26.4555 15.0894C26.5515 14.9885 26.5839 14.9545 26.8505 14.9545H28.6833V22.1683C28.6833 23.2412 27.8105 24.114 26.7376 24.114ZM26.8504 13.7828C26.2979 13.7828 25.9496 13.9224 25.6079 14.281L24.4179 15.5316L23.1651 14.1239C22.9423 13.8799 22.709 13.844 22.553 13.8566C22.4272 13.8668 22.1893 13.9249 22.0078 14.2032L20.1987 17.0299L17.7952 13.1208C17.5799 12.7713 17.3094 12.7017 17.123 12.6997C16.9353 12.7005 16.6672 12.7749 16.4577 13.1213L14.0545 17.03L12.2425 14.1986C12.0636 13.9248 11.8258 13.8668 11.7 13.8567C11.5438 13.844 11.3107 13.8801 11.0831 14.1296L9.83536 15.5318L8.64485 14.283C8.30533 13.9232 7.95706 13.7829 7.40282 13.7829H5.56995V6.56914C5.56995 5.49648 6.4428 4.62374 7.51568 4.62374H26.7376C27.8105 4.62374 28.6833 5.4964 28.6833 6.56914V13.7829H26.8504V13.7828Z" fill="#BA5EFF"/>
<path d="M34.7954 17.5878C36.2467 17.5878 37.4274 16.4068 37.4274 14.9552C37.4274 13.5035 36.2467 12.3225 34.7954 12.3225C33.3441 12.3225 32.1635 13.5035 32.1635 14.9552C32.1635 16.4068 33.3441 17.5878 34.7954 17.5878ZM34.7954 13.4944C35.601 13.4944 36.2566 14.1497 36.2566 14.9552C36.2566 15.7606 35.6011 16.416 34.7954 16.416C33.9897 16.416 33.3342 15.7606 33.3342 14.9552C33.3342 14.1497 33.9898 13.4944 34.7954 13.4944Z" fill="#BA5EFF"/>
<path d="M12.8698 6.58508H8.70366C8.11617 6.58508 7.63818 7.06337 7.63818 7.65118V9.1558C7.63818 9.74361 8.11617 10.2219 8.70366 10.2219H12.8698C13.4573 10.2219 13.9352 9.74361 13.9352 9.1558V7.65118C13.9352 7.06329 13.4573 6.58508 12.8698 6.58508ZM12.7644 9.05002H8.80895V7.75696H12.7645V9.05002H12.7644Z" fill="#BA5EFF"/>
<path d="M34.7954 9.78157C36.2467 9.78157 37.4274 8.60055 37.4274 7.1489C37.4274 5.69726 36.2467 4.51624 34.7954 4.51624C33.3441 4.51624 32.1635 5.69726 32.1635 7.1489C32.1635 8.60055 33.3441 9.78157 34.7954 9.78157ZM34.7954 5.68804C35.601 5.68804 36.2566 6.34335 36.2566 7.14882C36.2566 7.9543 35.6011 8.60961 34.7954 8.60961C33.9897 8.60961 33.3342 7.9543 33.3342 7.14882C33.3342 6.34335 33.9898 5.68804 34.7954 5.68804Z" fill="#BA5EFF"/>
</svg>
