<svg width="41" height="40" viewBox="0 0 41 40" fill="none" xmlns="http://www.w3.org/2000/svg">
<path d="M23.6238 33.7503L15.1143 20.5836V10.0001C15.1143 9.53988 14.7415 9.16675 14.2817 9.16675H10.119C9.65922 9.16675 9.28645 9.53988 9.28645 10.0001V20.6069L1.52798 33.8087C1.15684 34.4401 0.96109 35.1593 0.96109 35.892C0.961012 38.1609 2.79866 40.0003 5.06542 40.0004H20.2261C21.0053 40.0002 21.7678 39.7749 22.4222 39.3515C24.2992 38.1369 24.8373 35.6292 23.6238 33.7503ZM20.2261 38.3337H5.06542C4.62904 38.3345 4.20038 38.218 3.82425 37.9964C2.66316 37.3125 2.27579 35.8159 2.95905 34.6537L10.8367 21.2561C10.9119 21.128 10.9516 20.9822 10.9516 20.8336V10.8335H13.4492V20.8336C13.4492 20.9941 13.4954 21.1512 13.5825 21.2861L22.2243 34.6554C22.4736 35.0409 22.6063 35.4903 22.6065 35.9496C22.6069 37.2658 21.5412 38.3333 20.2261 38.3337Z" fill="#BA5EFF"/>
<path d="M12.9538 24.2279L11.5185 23.3838L4.44932 35.4114C4.37392 35.5397 4.33419 35.6859 4.33435 35.8348C4.33482 36.295 4.70798 36.6677 5.16778 36.6672H10.9515V35.0005H6.62227L12.9538 24.2279Z" fill="#BA5EFF"/>
<path d="M38.9135 19.167H25.9374C24.0982 19.167 22.6072 20.6594 22.6072 22.5004V35.8339C22.6099 38.134 24.4721 39.9978 26.7699 40.0006H34.2629C36.5608 39.9978 38.4228 38.1339 38.4256 35.8339V24.512L40.3354 22.6012C40.7114 22.2241 40.9226 21.7133 40.9229 21.1806C40.9236 20.0692 40.0239 19.1676 38.9135 19.167ZM39.1575 21.4229L37.0045 23.5779C36.8484 23.7341 36.7606 23.9461 36.7606 24.167V35.8338C36.7606 37.2145 35.6423 38.3338 34.2629 38.3338H26.77C25.3906 38.3338 24.2724 37.2145 24.2724 35.8338V22.5004C24.2724 21.5799 25.0178 20.8337 25.9374 20.8337H38.9136C39.0052 20.8336 39.0932 20.8701 39.1579 20.935C39.2923 21.0698 39.2922 21.2883 39.1575 21.4229Z" fill="#BA5EFF"/>
<path d="M33.4304 24.167V35.0005H30.9327V36.6671H34.263C34.7228 36.6671 35.0955 36.294 35.0955 35.8337V24.167H33.4304Z" fill="#BA5EFF"/>
<path d="M24.2723 12.0701V0.833368C24.2723 0.373129 23.8996 0 23.4398 0H17.6119C17.1521 0 16.7794 0.373129 16.7794 0.833368V12.3068C15.7633 12.62 14.7859 13.0468 13.8655 13.5794L14.6981 15.0219C15.6762 14.4565 16.7265 14.0268 17.8201 13.7444C18.1879 13.6493 18.4448 13.3171 18.4445 12.9368V1.66666H22.6072V12.7426C22.6074 13.1426 22.8915 13.4861 23.2841 13.561C26.2034 14.1196 28.8283 15.7011 30.688 18.0219L31.9859 16.9785C30.0267 14.5347 27.3144 12.8088 24.2723 12.0701Z" fill="#BA5EFF"/>
<path d="M36.3443 11.6667C34.7349 11.6667 33.4304 12.9726 33.4304 14.5834C33.4304 16.1943 34.735 17.5001 36.3443 17.5001C37.9536 17.5001 39.2581 16.1942 39.2581 14.5834C39.2581 12.9726 37.9536 11.6667 36.3443 11.6667ZM36.3443 15.8335C35.6545 15.8335 35.0954 15.2739 35.0954 14.5835C35.0954 13.8931 35.6545 13.3335 36.3443 13.3335C37.034 13.3335 37.5931 13.8931 37.5931 14.5835C37.5931 15.2739 37.034 15.8335 36.3443 15.8335Z" fill="#BA5EFF"/>
<path d="M33.4304 5.8335C32.051 5.8335 30.9327 6.9528 30.9327 8.33352C30.9327 9.71424 32.051 10.8335 33.4304 10.8335C34.8098 10.8335 35.928 9.71424 35.928 8.33352C35.928 6.9528 34.8098 5.8335 33.4304 5.8335ZM33.4304 9.16681C32.9706 9.16681 32.5978 8.79368 32.5978 8.33344C32.5978 7.8732 32.9706 7.50015 33.4304 7.50015C33.8902 7.50015 34.263 7.87328 34.263 8.33352C34.263 8.79376 33.8902 9.16681 33.4304 9.16681Z" fill="#BA5EFF"/>
<path d="M3.87489 6.66675C2.26555 6.66675 0.960999 7.97262 0.960999 9.58342C0.960999 11.1943 2.26555 12.5002 3.87489 12.5002C5.48423 12.5002 6.78879 11.1943 6.78879 9.5835C6.78879 7.97262 5.48423 6.66675 3.87489 6.66675ZM3.87489 10.8335C3.18515 10.8335 2.62607 10.2739 2.62607 9.5835C2.62607 8.8931 3.18515 8.33348 3.87489 8.33348C4.56463 8.33348 5.12372 8.8931 5.12372 9.5835C5.12372 10.2739 4.56463 10.8335 3.87489 10.8335Z" fill="#BA5EFF"/>
<path d="M7.62136 0.833496C6.24196 0.833496 5.12372 1.9528 5.12372 3.33352C5.12372 4.71424 6.24196 5.83354 7.62136 5.83354C9.00077 5.83354 10.119 4.71424 10.119 3.33352C10.119 1.9528 9.00077 0.833496 7.62136 0.833496ZM7.62136 4.16681C7.16156 4.16681 6.78879 3.79368 6.78879 3.33344C6.78879 2.87328 7.16156 2.50015 7.62136 2.50015C8.08116 2.50015 8.45394 2.87328 8.45394 3.33352C8.45394 3.79376 8.08116 4.16681 7.62136 4.16681Z" fill="#BA5EFF"/>
<path d="M28.4351 24.167H25.9374V25.8336H28.4351V24.167Z" fill="#BA5EFF"/>
<path d="M27.6025 27.5002H25.9374V29.1669H27.6025V27.5002Z" fill="#BA5EFF"/>
<path d="M28.4351 30.8335H25.9374V32.5002H28.4351V30.8335Z" fill="#BA5EFF"/>
<path d="M27.6025 34.167H25.9374V35.8336H27.6025V34.167Z" fill="#BA5EFF"/>
<path d="M4.29114 15H2.62607V16.6667H4.29114V15Z" fill="#BA5EFF"/>
<path d="M6.78879 19.167H5.12372V20.8336H6.78879V19.167Z" fill="#BA5EFF"/>
<path d="M20.9421 22.5002H19.277V24.1669H20.9421V22.5002Z" fill="#BA5EFF"/>
<path d="M19.277 19.167H17.6119V20.8336H19.277V19.167Z" fill="#BA5EFF"/>
<path d="M18.4444 15.8335H16.7794V17.5002H18.4444V15.8335Z" fill="#BA5EFF"/>
<path d="M19.277 34.167H17.6119V35.8336H19.277V34.167Z" fill="#BA5EFF"/>
<path d="M16.7794 30.8335H15.1143V32.5002H16.7794V30.8335Z" fill="#BA5EFF"/>
</svg>
