<svg width="45" height="45" viewBox="0 0 45 45" fill="none" xmlns="http://www.w3.org/2000/svg">
<path d="M22.5 0C10.0736 0 0 10.0736 0 22.5C0 34.9264 10.0736 45 22.5 45C34.9264 45 45 34.9264 45 22.5C44.9859 10.0794 34.9206 0.0140528 22.5 0ZM22.5 43.5C10.902 43.5 1.5 34.098 1.5 22.5C1.5 10.902 10.902 1.5 22.5 1.5C34.098 1.5 43.5 10.902 43.5 22.5C43.4868 34.0925 34.0925 43.4868 22.5 43.5Z" fill="#FFF5F4"/>
<path d="M42 20.781C41.9987 19.5959 41.7608 18.423 41.3002 17.331C38.7532 8.05335 29.819 2.02092 20.2617 3.12566C10.7044 4.23039 3.38204 12.1419 3.01872 21.756C3.01422 21.8505 2.99847 21.9397 2.99847 22.0357C2.99847 22.0777 3.00747 22.116 3.00822 22.158C3.00822 22.2712 2.99997 22.383 2.99997 22.497C3.01814 33.2595 11.7375 41.9802 22.5 42C33.2644 41.9876 41.9876 33.2644 42 22.5C42 22.166 41.9915 21.8342 41.9745 21.5047C41.982 21.4132 41.9872 21.3307 41.991 21.27C42 21.1042 42 20.9467 42 20.781ZM38.0085 13.3785C35.7441 11.9089 32.9175 11.599 30.3885 12.543C28.2105 13.3592 26.4554 15.0219 25.5225 17.1525C24.9517 18.4331 24.6928 19.8309 24.7672 21.231C23.7339 20.9381 22.6405 20.93 21.603 21.2077C21.2488 21.3161 20.9181 21.4898 20.628 21.72C20.5695 21.6832 20.511 21.645 20.451 21.6112C22.2585 20.379 23.25 18.8685 23.25 17.25C23.2653 15.6975 22.5195 14.2359 21.2535 13.3372C20.0882 12.525 19.4251 11.1685 19.5 9.75C19.4371 7.5366 20.6668 5.48861 22.65 4.50375C28.9725 4.56052 34.802 7.92906 38.0085 13.3785ZM19.9425 4.6845C18.6523 6.05077 17.9542 7.8714 18 9.75C17.9267 11.5936 18.7688 13.3545 20.25 14.4547C21.12 15.2332 21.75 15.7957 21.75 17.25C21.75 19.0927 19.746 20.4 18.4927 21.039C18.3292 21.0247 18.1702 21 18 21H9.37497C9.35622 20.9302 9.33747 20.8552 9.32097 20.79C9.09372 19.8847 8.62497 18 6.03747 18C5.68213 18.005 5.33228 18.0885 5.01297 18.2445C6.76336 11.1057 12.6687 5.74206 19.9425 4.6845ZM7.49997 32.4262C6.19329 30.4692 5.2911 28.2706 4.84647 25.9597C5.84592 26.6794 7.05672 27.0455 8.28747 27C9.46348 27.032 10.6368 27.1294 11.802 27.2917C10.9024 27.9597 10.0503 28.6895 9.25198 29.4757C8.48549 30.3388 7.89084 31.3402 7.49997 32.4262ZM8.59872 33.9C8.9034 32.6561 9.49406 31.5005 10.3237 30.525C11.5132 29.3777 12.8026 28.3386 14.1765 27.42C15.2812 26.6565 16.1302 26.145 16.1392 26.1405C16.3741 26.005 16.5176 25.7533 16.5145 25.4822C16.5114 25.211 16.3622 24.9626 16.1242 24.8326C15.8862 24.7026 15.5966 24.7111 15.3667 24.855C15.3337 24.8745 14.5897 25.323 13.5705 26.0182C11.8216 25.739 10.0573 25.5659 8.28747 25.5C7.19369 25.5756 6.12089 25.1731 5.34672 24.3967C4.81114 23.7756 4.51393 22.9842 4.50822 22.164C4.50822 21.996 4.51347 21.8287 4.52097 21.6622C4.63272 20.442 5.26722 19.5 6.03747 19.5C7.35672 19.5 7.60797 20.1247 7.86522 21.1545C7.99122 21.657 8.20197 22.5 9.03747 22.5H18C18.6112 22.4867 19.215 22.6357 19.7497 22.932C19.688 23.0891 19.6379 23.2505 19.5997 23.415C19.2922 24.765 19.7107 26.4405 20.781 28.314C20.5462 28.9635 20.298 29.5222 20.2335 29.6512C19.575 30.9 17.55 32.325 15.4072 33.0382C15.1527 33.1231 14.9627 33.3372 14.9089 33.6001C14.855 33.8629 14.9455 34.1345 15.1462 34.3126C15.347 34.4906 15.6274 34.5481 15.882 34.4632C18.432 33.6127 20.7142 31.9597 21.5655 30.3382C21.609 30.252 21.6855 30.084 21.78 29.8642C23.0071 31.5276 24.3958 33.0653 25.926 34.455C26.2307 34.7279 26.6979 34.7062 26.9761 34.4063C27.2543 34.1064 27.2409 33.6389 26.946 33.3555C22.0312 28.7962 20.6835 25.4055 21.06 23.7502C21.1497 23.2211 21.5344 22.7901 22.05 22.641C24.429 21.906 27.825 24.2287 27.8565 24.252C28.1965 24.4885 28.664 24.4046 28.9005 24.0645C29.137 23.7244 29.053 23.257 28.713 23.0205C27.9626 22.5207 27.1654 22.0952 26.3325 21.75C26.1439 20.3943 26.338 19.0128 26.8927 17.7615C27.6643 16.0003 29.1149 14.6257 30.915 13.95C32.6711 13.2864 34.621 13.3613 36.321 14.1577C37.9238 14.9072 39.1935 16.222 39.8865 17.85C40.2066 19.0433 40.4024 20.2666 40.4707 21.5002C40.3987 22.7524 40.1792 23.9918 39.8167 25.1925C39.1582 26.6422 37.509 28.035 34.9147 29.3317C34.6144 29.481 34.3512 29.6955 34.1445 29.9595C33.7621 29.3633 33.2225 28.8842 32.5852 28.575L26.5852 25.575C26.2145 25.3898 25.7639 25.5403 25.5787 25.911C25.3936 26.2817 25.544 26.7323 25.9147 26.9175L31.9147 29.9175C32.5897 30.2527 33.345 30.861 33.285 32.577C33.1233 33.6473 32.8009 34.687 32.3287 35.661C31.5558 36.8759 30.6516 38.0022 29.6325 39.0195C22.2653 42.2086 13.6763 40.118 8.59872 33.9ZM33.3945 36.8137C33.4995 36.6465 33.5955 36.4845 33.6712 36.333C34.2438 35.1409 34.6294 33.8677 34.8142 32.5582C35.0272 31.3582 35.1487 30.8872 35.5852 30.669C37.0862 29.9602 38.4663 29.0197 39.675 27.882C38.5531 31.4365 36.3593 34.5571 33.3945 36.816V36.8137Z" fill="#FFF5F4"/>
<path d="M35.5612 25.5C36.4708 25.4995 37.2906 24.9514 37.6387 24.1111C37.9868 23.2708 37.7947 22.3036 37.1519 21.66C36.9636 21.465 36.6848 21.3869 36.4226 21.4555C36.1603 21.5241 35.9556 21.7289 35.8869 21.9911C35.8183 22.2534 35.8965 22.5322 36.0914 22.7205C36.2809 22.9101 36.3548 23.1863 36.2853 23.4452C36.2159 23.704 36.0136 23.9062 35.7547 23.9754C35.4958 24.0447 35.2196 23.9706 35.0302 23.781C34.7359 23.4968 34.2681 23.5008 33.9788 23.7902C33.6895 24.0795 33.6855 24.5472 33.9697 24.8415C34.3914 25.264 34.9642 25.501 35.5612 25.5Z" fill="#FFF5F4"/>
</svg>
