<svg width="45" height="45" viewBox="0 0 45 45" fill="none" xmlns="http://www.w3.org/2000/svg">
<path d="M18.7599 3.00128C10.0647 3.00128 3.01587 10.0501 3.01587 18.7453C3.01587 27.4405 10.0647 34.4894 18.7599 34.4894C27.4551 34.4894 34.504 27.4405 34.504 18.7453C34.4945 10.054 27.4512 3.01075 18.7599 3.00128ZM18.7599 4.50071C23.3909 4.50437 27.7305 6.76139 30.3925 10.5509L28.5182 12.4252C28.0621 12.1492 27.5399 12.0015 27.0068 11.9979C25.3506 11.9979 24.0079 13.3405 24.0079 14.9967C24.0105 15.5304 24.1574 16.0535 24.433 16.5104L19.5239 21.4196C18.5943 20.8528 17.4261 20.8528 16.4965 21.4196L13.0868 18.0099C13.3624 17.5529 13.5093 17.0299 13.5119 16.4962C13.514 14.8432 12.1757 13.5016 10.5228 13.4996C9.15576 13.4979 7.96137 14.4226 7.62063 15.7465H4.83918C6.25867 9.19141 12.0529 4.51055 18.7599 4.50071ZM28.5062 14.9967C28.5062 15.8249 27.8349 16.4962 27.0068 16.4962C26.1786 16.4962 25.5074 15.8249 25.5074 14.9967C25.5074 14.1686 26.1786 13.4973 27.0068 13.4973C27.8349 13.4973 28.5062 14.1686 28.5062 14.9967ZM19.5096 23.9933C19.5096 24.8215 18.8383 25.4928 18.0102 25.4928C17.182 25.4928 16.5108 24.8215 16.5108 23.9933C16.5108 23.1652 17.182 22.4939 18.0102 22.4939C18.8383 22.4939 19.5096 23.1652 19.5096 23.9933ZM12.0125 16.4962C12.0125 17.3243 11.3412 17.9956 10.513 17.9956C9.68488 17.9956 9.0136 17.3243 9.0136 16.4962C9.0136 15.668 9.68488 14.9967 10.513 14.9967C11.3412 14.9967 12.0125 15.668 12.0125 16.4962ZM25.6811 31.2005C23.5639 32.3761 21.1817 32.992 18.7599 32.9898C10.8982 32.9952 4.52064 26.6264 4.5153 18.7647C4.51493 18.2574 4.54173 17.7503 4.59552 17.2458H7.62063C7.96147 18.5658 9.14977 19.4898 10.513 19.4949C11.0467 19.4923 11.5698 19.3455 12.0267 19.0699L15.4364 22.4796C15.1608 22.9365 15.014 23.4595 15.0113 23.9932C15.0113 25.6495 16.354 26.9921 18.0102 26.9921C19.6664 26.9921 21.0091 25.6495 21.0091 23.9932C21.0064 23.4595 20.8596 22.9365 20.584 22.4796L25.4931 17.5704C25.9501 17.846 26.4731 17.9929 27.0068 17.9955C28.663 17.9955 30.0057 16.6529 30.0057 14.9966C30.003 14.4629 29.8562 13.9399 29.5806 13.483L31.2149 11.8493C35.0305 18.7212 32.5529 27.3851 25.6811 31.2005Z" fill="white"/>
<path d="M37.5028 7.49957C38.8661 7.49442 40.0544 6.57048 40.3952 5.25042H45V3.75099H40.3952C40.0544 2.43093 38.8661 1.50699 37.5028 1.50184C35.8466 1.50184 34.504 2.84449 34.504 4.5007C34.5066 5.03441 34.6534 5.55743 34.9291 6.01438L33.6118 7.33163C27.309 -0.879727 15.543 -2.42695 7.33163 3.87582C-0.879727 10.1786 -2.42695 21.9447 3.87582 30.1561C9.82519 37.9069 20.7308 39.7871 28.9321 34.4759L31.1947 36.7385L32.2548 37.7986L38.29 43.8338C39.825 45.3688 42.3135 45.3688 43.8484 43.8338C45.3834 42.2989 45.3834 39.8104 43.8484 38.2754L37.8132 32.2402L36.7531 31.1801L34.4905 28.9175C38.507 22.7308 38.507 14.7599 34.4905 8.57316L35.9899 7.07373C36.4466 7.34944 36.9694 7.49657 37.5028 7.49957ZM37.5028 3.00127C38.331 3.00127 39.0023 3.67255 39.0023 4.5007C39.0023 5.32886 38.331 6.00014 37.5028 6.00014C36.6747 6.00014 36.0034 5.32886 36.0034 4.5007C36.0034 3.67255 36.6748 3.00127 37.5028 3.00127ZM42.7883 39.3355C43.7485 40.2742 43.7661 41.8135 42.8274 42.7737C41.8888 43.7339 40.3494 43.7514 39.3892 42.8128C39.376 42.8 39.3631 42.7869 39.3501 42.7737L33.3149 36.7385L36.7531 33.3003L42.7883 39.3355ZM35.693 32.2402L32.2548 35.6784L30.1796 33.6032C30.2853 33.5222 30.3843 33.433 30.4885 33.3498C30.5927 33.2666 30.7134 33.1669 30.8251 33.0731C30.9893 32.9352 31.1512 32.7957 31.3102 32.6525C31.3919 32.5776 31.4699 32.5026 31.5501 32.4276C31.8575 32.1397 32.1551 31.8421 32.443 31.5347C32.518 31.4545 32.5929 31.3765 32.6679 31.2948C32.8111 31.1359 32.9506 30.9739 33.0885 30.8097C33.1825 30.6988 33.2747 30.5866 33.3652 30.4731C33.4476 30.3697 33.5368 30.2707 33.6178 30.165L35.693 32.2402ZM32.7856 28.7578C32.5495 29.0876 32.3058 29.4108 32.0487 29.7219C31.9737 29.8126 31.8935 29.9003 31.8162 29.9896C31.5868 30.2565 31.3499 30.5154 31.1055 30.7663C30.9991 30.8762 30.8908 30.9844 30.7809 31.0909C30.5309 31.3353 30.2721 31.5722 30.0042 31.8016C29.915 31.8766 29.8272 31.9583 29.7365 32.034C29.4254 32.2912 29.1023 32.5348 28.7724 32.771C21.0113 38.3156 10.2249 36.5188 4.68026 28.7578C-0.864358 20.9967 0.932431 10.2103 8.69349 4.66564C16.4546 -0.878977 27.241 0.917718 32.7856 8.67887C37.076 14.6843 37.076 22.7524 32.7856 28.7578Z" fill="white"/>
</svg>
