<svg width="42" height="42" viewBox="0 0 42 42" fill="none" xmlns="http://www.w3.org/2000/svg">
<g filter="url(#filter0_d)">
<circle cx="21" cy="21" r="15" fill="url(#paint0_linear)"/>
</g>
<path d="M27.6653 23.5883L26.0492 21.9723C25.6036 21.5267 24.8786 21.5267 24.4331 21.9723L23.6985 22.7068C23.361 23.0444 22.8117 23.0443 22.4743 22.707L19.2903 19.5203C18.952 19.1819 18.9519 18.6343 19.2903 18.2959C19.4086 18.1776 19.7484 17.8379 20.0249 17.5614C20.4685 17.1178 20.4747 16.395 20.0245 15.9449L18.4088 14.3343C17.9633 13.8888 17.2383 13.8888 16.7939 14.3331C16.4614 14.6627 16.3541 14.7691 16.205 14.9169C14.5983 16.5236 14.5983 19.1379 16.205 20.7445L21.2499 25.7921C22.8604 27.4026 25.467 27.4027 27.0776 25.7921L27.6653 25.2044C28.1108 24.7589 28.1108 24.0339 27.6653 23.5883ZM17.3314 14.873C17.4799 14.7245 17.7216 14.7244 17.8705 14.8734L19.4862 16.484C19.6351 16.6328 19.6351 16.8738 19.4862 17.0227L19.2168 17.292L17.0635 15.1386L17.3314 14.873ZM21.7887 25.2535L16.7437 20.2059C15.5007 18.9628 15.4323 17.0109 16.5336 15.6862L18.6807 17.8333C18.1166 18.4729 18.1401 19.4474 18.7515 20.0589L21.9354 23.2454C21.9354 23.2454 21.9355 23.2455 21.9355 23.2455C22.5463 23.8563 23.5208 23.8814 24.1611 23.3164L26.3083 25.4636C24.9878 26.563 23.0403 26.5051 21.7887 25.2535ZM27.1266 24.6657L26.8572 24.9351L24.7025 22.7803L24.9718 22.5109C25.1203 22.3624 25.362 22.3624 25.5105 22.5109L27.1266 24.127C27.2751 24.2756 27.2751 24.5172 27.1266 24.6657Z" fill="#FFF5F4"/>
<defs>
<filter id="filter0_d" x="0" y="0" width="42" height="42" filterUnits="userSpaceOnUse" color-interpolation-filters="sRGB">
<feFlood flood-opacity="0" result="BackgroundImageFix"/>
<feColorMatrix in="SourceAlpha" type="matrix" values="0 0 0 0 0 0 0 0 0 0 0 0 0 0 0 0 0 0 127 0"/>
<feOffset/>
<feGaussianBlur stdDeviation="3"/>
<feColorMatrix type="matrix" values="0 0 0 0 0.729412 0 0 0 0 0.368627 0 0 0 0 1 0 0 0 0.9 0"/>
<feBlend mode="normal" in2="BackgroundImageFix" result="effect1_dropShadow"/>
<feBlend mode="normal" in="SourceGraphic" in2="effect1_dropShadow" result="shape"/>
</filter>
<linearGradient id="paint0_linear" x1="21.057" y1="36" x2="21.0943" y2="6.00002" gradientUnits="userSpaceOnUse">
<stop stop-color="#BA5EFF"/>
<stop offset="1" stop-color="#D092FF"/>
</linearGradient>
</defs>
</svg>
