<svg width="45" height="45" viewBox="0 0 45 45" fill="none" xmlns="http://www.w3.org/2000/svg">
<path d="M36.8261 15.5899L35.765 14.5295L40.5381 9.75566L41.5992 10.8168C41.7398 10.9573 41.9306 11.0363 42.1294 11.0363C42.3282 11.0363 42.519 10.9573 42.6596 10.8168L44.7803 8.69531C44.9209 8.55468 44.9998 8.36397 44.9998 8.16513C44.9998 7.96628 44.9209 7.77558 44.7803 7.63495L37.3563 0.210978C37.213 0.0754925 37.0233 0 36.8261 0C36.6289 0 36.4392 0.0754925 36.296 0.210978L34.1752 2.33318C34.0347 2.47381 33.9557 2.66452 33.9557 2.86336C33.9557 3.06221 34.0347 3.25291 34.1752 3.39354L39.4778 8.69531L34.7054 13.4684L31.5244 10.2866L34.7054 7.10478C34.777 7.0356 34.8342 6.95285 34.8735 6.86136C34.9128 6.76987 34.9335 6.67147 34.9343 6.5719C34.9352 6.47233 34.9162 6.37358 34.8785 6.28142C34.8408 6.18926 34.7851 6.10554 34.7147 6.03513C34.6443 5.96472 34.5606 5.90903 34.4684 5.87133C34.3763 5.83362 34.2775 5.81465 34.1779 5.81552C34.0784 5.81638 33.98 5.83707 33.8885 5.87637C33.797 5.91567 33.7142 5.9728 33.6451 6.04442L30.464 9.22623L29.4022 8.16588C29.2615 8.02529 29.0708 7.94632 28.872 7.94632C28.6731 7.94632 28.4824 8.02529 28.3418 8.16588L18.7979 17.7098C18.7281 17.7795 18.6728 17.8622 18.6351 17.9532C18.5974 18.0442 18.5779 18.1418 18.5779 18.2404C18.5779 18.3389 18.5974 18.4365 18.6351 18.5275C18.6728 18.6186 18.7281 18.7013 18.7979 18.7709L25.6909 25.664L15.0859 36.269L8.72301 29.9061L9.78337 28.8458L11.3739 30.4378C11.5153 30.5744 11.7048 30.65 11.9014 30.6483C12.098 30.6466 12.2861 30.5677 12.4251 30.4287C12.5641 30.2896 12.643 30.1015 12.6447 29.9049C12.6464 29.7083 12.5708 29.5189 12.4342 29.3774L10.8437 27.7869L11.9048 26.7258L14.5542 29.3759C14.6234 29.4476 14.7061 29.5047 14.7976 29.544C14.8891 29.5833 14.9875 29.604 15.0871 29.6049C15.1867 29.6057 15.2854 29.5867 15.3776 29.549C15.4697 29.5113 15.5534 29.4557 15.6239 29.3852C15.6943 29.3148 15.7499 29.2311 15.7877 29.1389C15.8254 29.0468 15.8443 28.948 15.8435 28.8485C15.8426 28.7489 15.8219 28.6505 15.7826 28.559C15.7433 28.4675 15.6862 28.3848 15.6146 28.3156L12.9637 25.664L14.0293 24.6036L15.6198 26.1941C15.7612 26.3307 15.9507 26.4063 16.1473 26.4046C16.3439 26.4029 16.532 26.324 16.671 26.185C16.8101 26.046 16.8889 25.8579 16.8906 25.6613C16.8923 25.4646 16.8168 25.2752 16.6802 25.1338L15.0896 23.5433L16.15 22.4821L18.8016 25.1338C18.9431 25.2704 19.1325 25.346 19.3291 25.3443C19.5257 25.3426 19.7138 25.2637 19.8528 25.1247C19.9919 24.9856 20.0707 24.7975 20.0725 24.6009C20.0742 24.4043 19.9986 24.2149 19.862 24.0734L17.2103 21.4218L17.7413 20.8916C17.8819 20.7509 17.9608 20.5601 17.9608 20.3612C17.9607 20.1623 17.8816 19.9715 17.7409 19.8309C17.6002 19.6903 17.4094 19.6113 17.2104 19.6114C17.0115 19.6115 16.8208 19.6906 16.6802 19.8313L7.13023 29.3759C6.98965 29.5166 6.91067 29.7073 6.91067 29.9061C6.91067 30.105 6.98965 30.2957 7.13023 30.4363L9.25094 32.557L6.6053 35.2086C6.46472 35.3493 6.38575 35.54 6.38575 35.7388C6.38575 35.9377 6.46472 36.1284 6.6053 36.269L7.13548 36.7992L0.228935 43.7057C0.157312 43.7749 0.100183 43.8576 0.0608817 43.9491C0.0215804 44.0406 0.000893556 44.139 2.83136e-05 44.2386C-0.000836929 44.3382 0.0181368 44.4369 0.0558422 44.5291C0.0935477 44.6212 0.14923 44.705 0.21964 44.7754C0.290049 44.8458 0.373777 44.9015 0.465936 44.9392C0.558096 44.9769 0.656842 44.9958 0.756413 44.995C0.855983 44.9941 0.954385 44.9734 1.04588 44.9341C1.13737 44.8948 1.22011 44.8377 1.28929 44.7661L8.19583 37.8595L8.72601 38.3905C8.86664 38.531 9.05734 38.61 9.25619 38.61C9.45503 38.61 9.64574 38.531 9.78636 38.3905L12.438 35.7388L14.5542 37.8618C14.6948 38.0024 14.8855 38.0813 15.0844 38.0813C15.2832 38.0813 15.4739 38.0024 15.6146 37.8618L36.8261 16.6495C36.9665 16.5089 37.0453 16.3183 37.0453 16.1197C37.0453 15.921 36.9665 15.7304 36.8261 15.5899ZM36.8261 1.80301L43.1898 8.16588L42.1294 9.22698L35.7665 2.86336L36.8261 1.80301ZM9.25319 36.7992L8.19283 35.7388L10.3135 33.6181L11.3739 34.6785L9.25319 36.7992ZM26.7513 24.6036L20.3884 18.24L21.4533 17.1796L27.8161 23.5433L26.7513 24.6036ZM28.8727 22.4821L27.8124 21.4218L32.584 16.6495C32.6572 16.5807 32.7159 16.4979 32.7565 16.406C32.7971 16.3141 32.8189 16.2149 32.8204 16.1145C32.822 16.014 32.8033 15.9142 32.7656 15.8211C32.7279 15.728 32.6718 15.6434 32.6007 15.5724C32.5296 15.5013 32.445 15.4453 32.3518 15.4076C32.2587 15.37 32.1589 15.3514 32.0585 15.353C31.958 15.3546 31.8589 15.3764 31.767 15.4171C31.6751 15.4578 31.5923 15.5166 31.5236 15.5899L26.752 20.3622L24.6306 18.2407L29.4022 13.4684C29.5388 13.327 29.6143 13.1375 29.6126 12.9409C29.6109 12.7443 29.5321 12.5562 29.393 12.4172C29.254 12.2781 29.0659 12.1993 28.8693 12.1976C28.6727 12.1959 28.4832 12.2714 28.3418 12.408L23.5702 17.1796L22.5099 16.1193L28.8727 9.75641L29.9323 10.816L34.1745 15.0582L35.2349 16.1185L28.8727 22.4821Z" fill="#FFF5F4"/>
<path d="M42.781 29.9878H43.5002C43.6991 29.9878 43.8898 29.9088 44.0304 29.7682C44.1711 29.6275 44.2501 29.4368 44.2501 29.2379V24.7385C44.2501 24.5397 44.1711 24.3489 44.0304 24.2083C43.8898 24.0677 43.6991 23.9886 43.5002 23.9886C43.3013 23.9886 43.1105 24.0677 42.9699 24.2083C42.8293 24.3489 42.7503 24.5397 42.7503 24.7385V28.488H33.7515V25.4884H40.5006C40.6995 25.4884 40.8902 25.4094 41.0308 25.2688C41.1715 25.1282 41.2505 24.9374 41.2505 24.7385C41.2505 24.5397 41.1715 24.3489 41.0308 24.2083C40.8902 24.0677 40.6995 23.9886 40.5006 23.9886H33.0016C32.8027 23.9886 32.612 24.0677 32.4714 24.2083C32.3307 24.3489 32.2517 24.5397 32.2517 24.7385V29.2379C32.2517 29.4368 32.3307 29.6275 32.4714 29.7682C32.612 29.9088 32.8027 29.9878 33.0016 29.9878H33.7208C33.653 30.9098 33.3257 31.7937 32.7767 32.5375C31.9519 33.6422 31.5048 34.9833 31.5018 36.3619V44.2359C31.5018 44.4347 31.5808 44.6255 31.7215 44.7661C31.8621 44.9067 32.0528 44.9857 32.2517 44.9857H44.2501C44.449 44.9857 44.6397 44.9067 44.7803 44.7661C44.921 44.6255 45 44.4347 45 44.2359V36.3619C44.997 34.9833 44.5499 33.6422 43.7251 32.5375C43.1758 31.7939 42.8484 30.9099 42.781 29.9878ZM43.5002 43.486H33.0016V36.3619C33.004 35.3077 33.3458 34.2822 33.9765 33.4373C34.7247 32.4351 35.1639 31.2362 35.2401 29.9878H41.2617C41.3379 31.2362 41.7771 32.4351 42.5253 33.4373C42.5965 33.5318 42.6505 33.6376 42.7143 33.7373H35.5805C35.3816 33.7373 35.1909 33.8163 35.0503 33.9569C34.9096 34.0976 34.8306 34.2883 34.8306 34.4872C34.8306 34.6861 34.9096 34.8768 35.0503 35.0175C35.1909 35.1581 35.3816 35.2371 35.5805 35.2371H43.3502C43.4442 35.6048 43.4946 35.9824 43.5002 36.3619V43.486Z" fill="#FFF5F4"/>
<path d="M40.1257 38.2367H39.0008V37.4868C39.0008 37.288 38.9218 37.0972 38.7812 36.9566C38.6405 36.8159 38.4498 36.7369 38.2509 36.7369C38.052 36.7369 37.8613 36.8159 37.7207 36.9566C37.58 37.0972 37.501 37.288 37.501 37.4868V38.2367H36.3762C36.1773 38.2367 35.9866 38.3157 35.8459 38.4564C35.7053 38.597 35.6263 38.7877 35.6263 38.9866C35.6263 39.1855 35.7053 39.3763 35.8459 39.5169C35.9866 39.6575 36.1773 39.7365 36.3762 39.7365H37.501V40.4864C37.501 40.6853 37.58 40.876 37.7207 41.0167C37.8613 41.1573 38.052 41.2363 38.2509 41.2363C38.4498 41.2363 38.6405 41.1573 38.7812 41.0167C38.9218 40.876 39.0008 40.6853 39.0008 40.4864V39.7365H40.1257C40.3245 39.7365 40.5153 39.6575 40.6559 39.5169C40.7966 39.3763 40.8756 39.1855 40.8756 38.9866C40.8756 38.7877 40.7966 38.597 40.6559 38.4564C40.5153 38.3157 40.3245 38.2367 40.1257 38.2367Z" fill="#FFF5F4"/>
</svg>
