<svg width="45" height="44" viewBox="0 0 45 44" fill="none" xmlns="http://www.w3.org/2000/svg">
<path d="M1.38529 38.3156C1.73616 38.2197 1.9425 37.859 1.84568 37.5099C0.973642 34.3613 1.17414 29.5539 2.45851 22.8128C3.3024 18.3835 4.66195 14.551 6.49976 11.4216C7.82052 9.17263 9.35277 7.33353 11.0543 5.9548C12.1371 5.07706 13.6707 5.06273 14.7838 5.92033C15.6177 6.5626 16.0462 7.5731 15.9295 8.62284C15.6898 10.7841 15.7904 13.9347 17.5537 16.9031C17.3148 17.1959 17.0477 17.5115 16.7496 17.8497C16.749 17.8504 16.7483 17.8514 16.7476 17.8521C16.1032 18.5886 15.4189 19.2861 14.7247 19.9762C14.5548 20.1451 12.5409 22.0695 12.4911 22.02C12.0108 21.5368 11.4498 20.9218 10.8963 20.1997C10.9042 19.5772 10.9654 17.7177 11.3962 16.4802C11.5154 16.1383 11.3327 15.7649 10.9887 15.6468C10.6447 15.5284 10.2694 15.7096 10.1503 16.0516C9.9038 16.759 9.76304 17.6095 9.6827 18.3715C9.22437 17.5576 8.83195 16.6676 8.57823 15.7216C8.48416 15.3721 8.12299 15.1639 7.77143 15.2575C7.41952 15.3506 7.21044 15.7096 7.30416 16.0594C7.63856 17.3064 8.18513 18.4589 8.80998 19.482C7.94892 19.3981 6.86883 19.4199 5.88144 19.8107C5.54326 19.9444 5.37812 20.3256 5.51305 20.6618C5.64489 20.9918 6.03765 21.1597 6.3693 21.0283C7.67632 20.5109 9.3047 20.8526 9.84784 20.9918C10.4129 21.7296 10.9832 22.3616 11.4793 22.8667C11.229 23.0711 10.9853 23.2858 10.7487 23.511C9.79222 24.4222 8.95108 25.5023 8.23113 26.7429C7.30828 25.9753 6.14236 24.7928 5.69364 23.4336C5.58 23.0899 5.20749 22.9026 4.86142 23.0155C4.5157 23.1285 4.32722 23.4988 4.44085 23.8424C4.62968 24.414 4.91121 24.9519 5.24663 25.4512C4.6774 25.5314 3.9911 25.6914 3.31819 26.0064C2.9886 26.1603 2.84715 26.5507 3.00233 26.878C3.15477 27.2005 3.55508 27.3438 3.87952 27.192C4.80375 26.7599 5.79046 26.6924 6.2433 26.6862C6.68824 27.1565 7.15928 27.5728 7.60594 27.9288C7.31893 28.5233 7.05491 29.1474 6.81733 29.8037C6.49564 30.6917 6.24604 31.5609 6.05207 32.3782C5.83474 32.3134 5.60643 32.2526 5.36988 32.1991C5.18243 31.867 4.84391 31.1749 4.76804 30.389C4.73337 30.0289 4.41167 29.7645 4.04912 29.7993C3.68658 29.8337 3.42084 30.1538 3.45552 30.5139C3.50873 31.0664 3.65568 31.5739 3.81875 31.9936C3.36591 31.9803 2.90826 32.0117 2.46297 32.1097C2.10729 32.1881 1.8831 32.5379 1.96172 32.8912C2.04069 33.2447 2.39259 33.4676 2.74793 33.3894C3.74734 33.1693 4.87756 33.3843 5.78222 33.6665C5.62806 34.5081 5.53228 35.2613 5.47426 35.8756C5.38327 36.8325 6.10597 37.7334 7.07723 37.8099C7.93107 37.8771 8.75573 37.2693 8.93426 36.4352C8.98713 36.1885 9.05579 35.894 9.14231 35.5616C9.84338 36.1844 10.6303 37.0553 10.954 38.0351C11.0656 38.3736 11.446 38.5644 11.7859 38.4535C12.132 38.3405 12.3201 37.9703 12.2065 37.6263C12.0643 37.1963 11.8607 36.7891 11.6184 36.4073C12.064 36.3329 12.5769 36.1994 13.0809 35.9636C13.4105 35.8097 13.5516 35.4193 13.3968 35.0917C13.2416 34.764 12.8488 34.6238 12.5196 34.7777C11.8017 35.1138 11.0344 35.1777 10.6498 35.1865C10.289 34.8091 9.90964 34.474 9.54881 34.1859C10.1194 32.4574 11.0769 30.2603 12.6339 28.2851C12.8402 28.598 13.0761 28.9249 13.3425 29.256C13.2512 29.9969 13.0878 31.9571 13.6563 33.5246C13.7778 33.8597 14.1637 34.0392 14.5002 33.9187C14.8425 33.7959 15.0203 33.4205 14.8967 33.0802C14.6101 32.2895 14.5534 31.3367 14.5702 30.5692C15.0536 31.0128 15.5999 31.4377 16.2168 31.8165C16.5172 32.0008 16.9333 31.9104 17.1242 31.6029C17.3154 31.295 17.2193 30.8913 16.9093 30.7012C15.2878 29.7061 14.2039 28.3397 13.5327 27.2466C13.8129 26.9521 14.1071 26.6654 14.4195 26.3907C16.0963 24.916 17.4868 23.9315 18.6039 23.1401C18.7086 23.066 18.8106 22.9937 18.9112 22.922C19.2573 24.5813 19.6857 27.3397 19.6857 32.2803C19.6857 36.9284 19.0657 39.6162 17.6759 40.9956C16.1402 42.5201 13.5128 42.516 9.87668 42.5108C7.19602 42.5108 4.36258 42.1607 2.79634 39.7193C2.60065 39.4142 2.19312 39.3244 1.88619 39.5189C1.57926 39.7135 1.48897 40.1189 1.68466 40.424C3.15099 42.7095 5.61124 43.8206 9.20583 43.8206C9.64116 43.8206 10.0765 43.822 10.5118 43.822C14.137 43.822 16.7898 43.7271 18.6077 41.9232C20.2649 40.2779 21.0044 37.3041 21.0044 32.2803C21.0044 26.5797 20.4428 23.6933 20.073 22.0644C20.7892 21.4993 21.3426 20.9525 21.7254 20.2704C21.8758 20.0028 22.1539 19.8366 22.4512 19.8366H22.5439C22.8416 19.8366 23.1197 20.0028 23.2697 20.2704C23.6525 20.9525 24.2059 21.4993 24.9221 22.0644C24.5527 23.6933 23.991 26.5797 23.991 32.2803C23.991 37.3041 24.7302 40.2779 26.3877 41.9232C28.2053 43.7275 30.8578 43.822 34.4833 43.822C34.9186 43.822 35.3539 43.8206 35.7893 43.8206C38.9959 43.8206 41.2841 42.9456 42.7841 41.1454C44.0784 39.5927 44.7902 37.3621 44.9598 34.3262C45.13 31.2903 44.761 27.4442 43.8319 22.5688C42.9434 17.9047 41.4939 13.8699 39.5243 10.5763C39.3382 10.265 38.9334 10.163 38.6207 10.348C38.3075 10.5329 38.2049 10.9349 38.3906 11.2462C40.282 14.408 41.6766 18.2995 42.5366 22.8125C44.2903 32.0168 44.0462 37.5768 41.7689 40.3097C40.1333 42.272 37.5066 42.5071 35.1188 42.5108C31.4826 42.516 28.8549 42.5201 27.3192 40.9956C25.9294 39.6162 25.3097 36.9284 25.3097 32.2803C25.3097 27.3397 25.7382 24.5813 26.0842 22.922C26.1848 22.9937 26.2868 23.066 26.3915 23.1401C27.8335 24.1615 29.2486 25.2235 30.5756 26.3907C30.888 26.6654 31.1826 26.9521 31.4624 27.2466C30.7915 28.3393 29.7077 29.7061 28.0858 30.7012C27.7761 30.8913 27.68 31.295 27.8712 31.6029C28.0597 31.9066 28.4731 32.0039 28.7783 31.8165C29.3959 31.4377 29.9422 31.0121 30.4262 30.5681C30.4431 31.3343 30.3864 32.2864 30.0987 33.0799C29.947 33.4983 30.2721 33.9576 30.7187 33.9576C30.9889 33.9576 31.242 33.7914 31.3391 33.5246C31.9073 31.9571 31.7443 29.9969 31.6529 29.256C31.9193 28.9246 32.1552 28.5977 32.3612 28.2851C33.9185 30.2603 34.876 32.4574 35.4466 34.1859C35.0858 34.474 34.7064 34.8091 34.3456 35.1865C33.9611 35.1777 33.1941 35.1138 32.4759 34.7777C32.1463 34.6238 31.7539 34.7644 31.5987 35.0917C31.4438 35.4193 31.585 35.8097 31.9145 35.9636C32.4185 36.1994 32.9318 36.3329 33.3771 36.4073C33.1347 36.7891 32.9311 37.1963 32.789 37.6263C32.6753 37.9703 32.8635 38.3405 33.2096 38.4535C33.5443 38.5627 33.9281 38.3784 34.0414 38.0351C34.3652 37.0553 35.1521 36.1844 35.8531 35.5616C35.9397 35.894 36.0083 36.1885 36.0612 36.4352C36.0612 36.4363 36.0615 36.4369 36.0619 36.438C36.2404 37.2669 37.0678 37.8764 37.9182 37.8099C38.9358 37.73 39.6094 36.77 39.5136 35.8012C39.4549 35.2005 39.3612 34.475 39.2132 33.6665C40.1175 33.3843 41.2481 33.1693 42.2475 33.3894C42.6029 33.4676 42.9548 33.2444 43.0334 32.8912C43.1123 32.5379 42.8878 32.1881 42.5325 32.1097C42.0872 32.0117 41.6295 31.9803 41.1767 31.9936C41.3398 31.5739 41.4867 31.0664 41.5399 30.5139C41.5746 30.1538 41.3089 29.8337 40.9463 29.7993C40.5834 29.7645 40.2621 30.0289 40.2274 30.389C40.1515 31.1766 39.8137 31.8667 39.6256 32.1991C39.389 32.2526 39.1607 32.3134 38.9434 32.3779C38.7494 31.5609 38.4998 30.6913 38.1781 29.8037C38.118 29.6378 37.3665 27.9469 37.3895 27.9288C37.8365 27.5725 38.3075 27.1558 38.7528 26.6855C39.2029 26.69 40.1835 26.7562 41.1159 27.192C41.4345 27.3411 41.8383 27.2053 41.9931 26.878C42.1479 26.5507 42.0068 26.1603 41.6773 26.0061C41.0043 25.6914 40.318 25.5314 39.7488 25.4512C40.0842 24.9519 40.3658 24.414 40.5542 23.8424C40.6679 23.4988 40.4797 23.1285 40.1337 23.0155C39.788 22.9026 39.4154 23.0896 39.3018 23.4336C38.8527 24.7928 37.6872 25.9753 36.764 26.7432C35.8662 25.1955 34.7796 23.8984 33.5158 22.8667C34.0122 22.3616 34.5828 21.7293 35.1479 20.9911C35.6904 20.8505 37.3112 20.5079 38.6261 21.0283C38.9599 21.1604 39.3495 20.9938 39.4824 20.6618C39.617 20.3256 39.4522 19.9444 39.1137 19.8107C38.1263 19.4199 37.0465 19.3981 36.1855 19.482C36.8103 18.4592 37.3565 17.3064 37.6913 16.0594C37.785 15.71 37.5759 15.3506 37.224 15.2575C36.8725 15.1643 36.5109 15.3721 36.4172 15.7219C36.1635 16.6676 35.7711 17.5579 35.3127 18.3715C35.2324 17.6095 35.0916 16.759 34.8451 16.0516C34.726 15.7096 34.3508 15.5284 34.0064 15.6468C33.6624 15.7653 33.4801 16.1383 33.5992 16.4806C34.0301 17.718 34.0909 19.5772 34.0991 20.1997C33.5457 20.9218 32.9847 21.5368 32.504 22.0204C32.4893 22.0074 32.4738 21.9944 32.459 21.9818C31.185 20.887 30.0331 19.6939 28.8449 18.5125C28.2966 17.9204 27.8314 17.3801 27.4417 16.9034C29.205 13.9344 29.3056 10.7841 29.0657 8.62284C28.9493 7.5731 29.3777 6.5626 30.2117 5.92033C31.3247 5.06273 32.858 5.07706 33.9412 5.9548C35.0353 6.84142 36.0749 7.93792 37.0314 9.21392C37.2487 9.504 37.6618 9.56406 37.9536 9.3477C38.2457 9.13167 38.3062 8.72113 38.0885 8.43071C37.0675 7.0687 35.9524 5.89371 34.7744 4.93884C33.213 3.67376 31.0047 3.65124 29.4038 4.88424C28.2043 5.8084 27.588 7.25981 27.7552 8.76652C27.9602 10.6131 27.8942 13.2501 26.5649 15.7738C26.5148 15.7055 26.4664 15.639 26.4217 15.5765C26.053 15.0612 25.858 14.4565 25.858 13.8275V1.8019C25.858 0.808466 25.0447 0 24.0452 0H20.9505C19.9511 0 19.1378 0.808466 19.1378 1.8019V13.8275C19.1378 14.4565 18.9428 15.0612 18.5741 15.5765C18.5294 15.639 18.481 15.7055 18.4309 15.7738C17.1019 13.2501 17.0356 10.6131 17.2406 8.76652C17.4078 7.25981 16.7915 5.8084 15.592 4.88424C13.9911 3.65124 11.7828 3.67376 10.2217 4.93884C8.3973 6.41722 6.7624 8.37576 5.36165 10.7609C3.44762 14.0197 2.0352 17.9924 1.1635 22.5688C-0.159665 29.5109 -0.351925 34.5122 0.574702 37.858C0.671175 38.2068 1.03407 38.4119 1.38529 38.3156ZM19.648 16.3362C20.1767 15.598 20.4558 14.7305 20.4558 13.8275V1.8019C20.4558 1.53093 20.6776 1.31081 20.9502 1.31081H24.0449C24.3175 1.31081 24.5393 1.53093 24.5393 1.8019V13.8275C24.5393 14.7305 24.8184 15.598 25.3468 16.3362C26.4619 17.8941 27.7518 19.3284 29.1106 20.6789C30.4853 22.0453 32.0515 23.2032 33.4379 24.5581C37.0788 28.1171 37.9841 33.6525 38.207 35.9858C38.2073 35.9899 38.2076 35.9943 38.208 35.9984C38.2306 36.2363 38.0617 36.4834 37.8132 36.5032C37.8087 36.5035 37.8042 36.5028 37.7998 36.5032C37.5873 36.5134 37.3946 36.3697 37.3504 36.1626C37.2103 35.5077 37.0603 34.8323 36.8333 34.201C35.9033 31.6483 34.8729 29.2409 33.1127 27.1244C31.4384 25.1113 29.2809 23.5776 27.1561 22.0726C26.191 21.3887 25.0151 20.6908 24.4208 19.6322C23.6065 18.1804 21.3896 18.178 20.5739 19.6318C19.9786 20.6928 18.8075 21.386 17.8387 22.0726C16.6964 22.8814 15.2751 23.8885 13.5461 25.4088C11.1229 27.5397 9.46538 30.4217 8.41309 33.4351C8.1017 34.3269 7.84249 35.2391 7.64474 36.1626C7.59942 36.3742 7.40064 36.5206 7.1816 36.5032C6.93235 36.4834 6.76412 36.2356 6.78678 35.9984C6.87364 35.0824 7.06658 33.6665 7.49059 32.069C8.01381 30.0982 8.79659 28.1735 9.95255 26.4821C10.6035 25.5296 11.3852 24.6379 12.3239 23.8728C13.5561 22.8688 14.7433 21.8091 15.8718 20.6911C17.2365 19.3394 18.5301 17.8979 19.648 16.3362Z" fill="#FFF5F4"/>
</svg>
