<svg width="41" height="38" viewBox="0 0 41 38" fill="none" xmlns="http://www.w3.org/2000/svg">
<path d="M12.6793 0H14.0114V4H12.6793V0Z" fill="#BA5EFF"/>
<path d="M6.75072 3.00928L7.69249 2.06661L10.5178 4.89461L9.57603 5.83728L6.75072 3.00928Z" fill="#BA5EFF"/>
<path d="M16.1687 4.89636L18.994 2.06836L19.9358 3.01103L17.1105 5.83903L16.1687 4.89636Z" fill="#BA5EFF"/>
<path d="M37.3225 24H37.1074L33.9491 16.096C33.7038 15.476 33.2776 14.9444 32.7259 14.5705C32.1743 14.1966 31.5229 13.9978 30.8567 14H26V13.3333C25.9989 12.4496 25.6477 11.6024 25.0234 10.9775C24.3991 10.3526 23.5527 10.0011 22.6698 10H16.6755V9.33333C16.6755 8.44928 16.3247 7.60143 15.7002 6.97631C15.0756 6.35119 14.2286 6 13.3454 6C12.4622 6 11.6151 6.35119 10.9906 6.97631C10.3661 7.60143 10.0152 8.44928 10.0152 9.33333V10H4.02093C3.13804 10.0011 2.29161 10.3526 1.66732 10.9775C1.04302 11.6024 0.691823 12.4496 0.690765 13.3333V30.6667C0.691823 31.5504 1.04302 32.3976 1.66732 33.0225C2.29161 33.6474 3.13804 33.9989 4.02093 34H6.73834C6.89759 35.1099 7.45126 36.1251 8.29782 36.8595C9.14437 37.5939 10.2271 37.9981 11.3473 37.9981C12.4675 37.9981 13.5502 37.5939 14.3967 36.8595C15.2433 36.1251 15.797 35.1099 15.9562 34H28.0514C28.2106 35.1099 28.7643 36.1251 29.6109 36.8595C30.4574 37.5939 31.5401 37.9981 32.6603 37.9981C33.7805 37.9981 34.8632 37.5939 35.7098 36.8595C36.5563 36.1251 37.11 35.1099 37.2693 34H38.6546C39.1845 34 39.6928 33.7893 40.0675 33.4142C40.4422 33.0391 40.6527 32.5304 40.6527 32V27.3333C40.6516 26.4496 40.3005 25.6024 39.6762 24.9775C39.0519 24.3526 38.2054 24.0011 37.3225 24ZM30.8567 15.3333C31.2563 15.3319 31.6471 15.4512 31.978 15.6755C32.3089 15.8998 32.5646 16.2187 32.7116 16.5907L35.6728 24H26V15.3333H30.8567ZM11.3473 9.33333C11.3473 8.8029 11.5578 8.29419 11.9325 7.91912C12.3072 7.54405 12.8155 7.33333 13.3454 7.33333C13.8753 7.33333 14.3835 7.54405 14.7582 7.91912C15.133 8.29419 15.3435 8.8029 15.3435 9.33333V10H11.3473V9.33333ZM11.3473 36.6667C10.6886 36.6667 10.0448 36.4712 9.49714 36.1049C8.9495 35.7386 8.52267 35.218 8.27061 34.6089C8.01856 33.9999 7.95261 33.3296 8.08111 32.683C8.2096 32.0364 8.52677 31.4425 8.9925 30.9763C9.45823 30.5101 10.0516 30.1927 10.6976 30.064C11.3436 29.9354 12.0132 30.0014 12.6217 30.2537C13.2302 30.506 13.7503 30.9333 14.1162 31.4814C14.4821 32.0296 14.6774 32.6741 14.6774 33.3333C14.6764 34.2171 14.3252 35.0643 13.7009 35.6892C13.0766 36.3141 12.2302 36.6656 11.3473 36.6667ZM24.6679 32.6667H15.9562C15.797 31.5568 15.2433 30.5415 14.3967 29.8072C13.5502 29.0728 12.4675 28.6685 11.3473 28.6685C10.2271 28.6685 9.14437 29.0728 8.29782 29.8072C7.45126 30.5415 6.89759 31.5568 6.73834 32.6667H4.02093C3.491 32.6667 2.98278 32.4559 2.60806 32.0809C2.23334 31.7058 2.02283 31.1971 2.02283 30.6667V13.3333C2.02283 12.8029 2.23334 12.2942 2.60806 11.9191C2.98278 11.544 3.491 11.3333 4.02093 11.3333H22.6698C23.1998 11.3333 23.708 11.544 24.0827 11.9191C24.4574 12.2942 24.6679 12.8029 24.6679 13.3333V32.6667ZM32.6603 36.6667C32.0017 36.6667 31.3578 36.4712 30.8102 36.1049C30.2625 35.7386 29.8357 35.218 29.5837 34.6089C29.3316 33.9999 29.2656 33.3296 29.3941 32.683C29.5226 32.0364 29.8398 31.4425 30.3055 30.9763C30.7713 30.5101 31.3646 30.1927 32.0106 30.064C32.6566 29.9354 33.3262 30.0014 33.9347 30.2537C34.5432 30.506 35.0633 30.9333 35.4292 31.4814C35.7952 32.0296 35.9905 32.6741 35.9905 33.3333C35.9894 34.2171 35.6382 35.0643 35.0139 35.6892C34.3896 36.3141 33.5432 36.6656 32.6603 36.6667ZM39.3206 32C39.3206 32.1768 39.2505 32.3464 39.1256 32.4714C39.0007 32.5964 38.8313 32.6667 38.6546 32.6667H37.2693C37.11 31.5568 36.5563 30.5415 35.7098 29.8072C34.8632 29.0728 33.7805 28.6685 32.6603 28.6685C31.5401 28.6685 30.4574 29.0728 29.6109 29.8072C28.7643 30.5415 28.2106 31.5568 28.0514 32.6667H26V25.3333H37.3225C37.8525 25.3333 38.3607 25.544 38.7354 25.9191C39.1101 26.2942 39.3206 26.8029 39.3206 27.3333V32Z" fill="#BA5EFF"/>
<path d="M11.3473 31.3333C10.9521 31.3333 10.5658 31.4506 10.2372 31.6703C9.90863 31.8901 9.65253 32.2024 9.50129 32.5679C9.35006 32.9333 9.31049 33.3355 9.38759 33.7234C9.46469 34.1114 9.65499 34.4678 9.93443 34.7475C10.2139 35.0272 10.5699 35.2177 10.9575 35.2948C11.3451 35.372 11.7468 35.3324 12.1119 35.181C12.477 35.0296 12.7891 34.7733 13.0087 34.4444C13.2282 34.1155 13.3454 33.7288 13.3454 33.3333C13.3454 32.8028 13.1349 32.2941 12.7602 31.919C12.3854 31.544 11.8772 31.3333 11.3473 31.3333ZM11.3473 33.9999C11.2156 33.9999 11.0868 33.9608 10.9773 33.8876C10.8677 33.8143 10.7824 33.7102 10.732 33.5884C10.6816 33.4666 10.6684 33.3325 10.6941 33.2032C10.7198 33.0739 10.7832 32.9551 10.8763 32.8618C10.9695 32.7686 11.0882 32.7051 11.2174 32.6794C11.3466 32.6537 11.4805 32.6669 11.6022 32.7173C11.7239 32.7678 11.8279 32.8532 11.9011 32.9629C11.9743 33.0725 12.0133 33.2014 12.0133 33.3333C12.0133 33.5101 11.9432 33.6796 11.8183 33.8047C11.6933 33.9297 11.5239 33.9999 11.3473 33.9999Z" fill="#BA5EFF"/>
<path d="M32.6603 31.3333C32.2651 31.3333 31.8788 31.4506 31.5502 31.6703C31.2217 31.8901 30.9656 32.2024 30.8143 32.5679C30.6631 32.9333 30.6235 33.3355 30.7006 33.7234C30.7777 34.1114 30.968 34.4678 31.2475 34.7475C31.5269 35.0272 31.8829 35.2177 32.2705 35.2948C32.6581 35.372 33.0599 35.3324 33.425 35.181C33.7901 35.0296 34.1021 34.7733 34.3217 34.4444C34.5412 34.1155 34.6584 33.7288 34.6584 33.3333C34.6584 32.8028 34.4479 32.2941 34.0732 31.919C33.6985 31.544 33.1903 31.3333 32.6603 31.3333ZM32.6603 33.9999C32.5286 33.9999 32.3998 33.9608 32.2903 33.8876C32.1808 33.8143 32.0954 33.7102 32.045 33.5884C31.9946 33.4666 31.9814 33.3325 32.0071 33.2032C32.0328 33.0739 32.0962 32.9551 32.1894 32.8618C32.2825 32.7686 32.4012 32.7051 32.5304 32.6794C32.6596 32.6537 32.7935 32.6669 32.9152 32.7173C33.0369 32.7678 33.1409 32.8532 33.2141 32.9629C33.2873 33.0725 33.3264 33.2014 33.3264 33.3333C33.3264 33.5101 33.2562 33.6796 33.1313 33.8047C33.0064 33.9297 32.837 33.9999 32.6603 33.9999Z" fill="#BA5EFF"/>
<path d="M18.0076 17.9999H15.3435V15.3332C15.3435 14.9796 15.2032 14.6405 14.9533 14.3904C14.7035 14.1404 14.3647 13.9999 14.0114 13.9999H12.6794C12.3261 13.9999 11.9873 14.1404 11.7375 14.3904C11.4876 14.6405 11.3473 14.9796 11.3473 15.3332V17.9999H8.68317C8.32988 17.9999 7.99107 18.1404 7.74126 18.3904C7.49145 18.6404 7.3511 18.9796 7.3511 19.3332V20.6665C7.3511 21.0202 7.49145 21.3593 7.74126 21.6094C7.99107 21.8594 8.32988 21.9999 8.68317 21.9999H11.3473V24.6665C11.3473 25.0202 11.4876 25.3593 11.7375 25.6094C11.9873 25.8594 12.3261 25.9999 12.6794 25.9999H14.0114C14.3647 25.9999 14.7035 25.8594 14.9533 25.6094C15.2032 25.3593 15.3435 25.0202 15.3435 24.6665V21.9999H18.0076C18.3609 21.9999 18.6997 21.8594 18.9495 21.6094C19.1993 21.3593 19.3397 21.0202 19.3397 20.6665V19.3332C19.3397 18.9796 19.1993 18.6404 18.9495 18.3904C18.6997 18.1404 18.3609 17.9999 18.0076 17.9999ZM18.0076 20.6665H15.3435C14.9902 20.6665 14.6514 20.807 14.4016 21.0571C14.1518 21.3071 14.0114 21.6463 14.0114 21.9999V24.6665H12.6794V21.9999C12.6794 21.6463 12.539 21.3071 12.2892 21.0571C12.0394 20.807 11.7006 20.6665 11.3473 20.6665H8.68317V19.3332H11.3473C11.7006 19.3332 12.0394 19.1927 12.2892 18.9427C12.539 18.6926 12.6794 18.3535 12.6794 17.9999V15.3332H14.0114V17.9999C14.0114 18.3535 14.1518 18.6926 14.4016 18.9427C14.6514 19.1927 14.9902 19.3332 15.3435 19.3332H18.0076V20.6665Z" fill="#BA5EFF"/>
<path d="M26.9324 18.7927L29.5966 16.7927L30.3954 17.8589L27.7313 19.8589L26.9324 18.7927Z" fill="#BA5EFF"/>
<path d="M26.9324 21.4594L32.2607 17.4594L33.0595 18.5255L27.7313 22.5255L26.9324 21.4594Z" fill="#BA5EFF"/>
</svg>
