<svg width="23" height="36" viewBox="0 0 23 36" fill="none" xmlns="http://www.w3.org/2000/svg">
<path d="M18.9276 11.8914C18.9276 7.95141 15.7296 4.69678 11.8008 4.69678C7.87706 4.69678 4.67401 7.94686 4.67401 11.8914C4.67401 15.8211 7.87108 19.0182 11.8008 19.0182C15.7305 19.0182 18.9276 15.8211 18.9276 11.8914ZM6.71023 11.8914C6.71023 9.04703 8.99386 6.733 11.8008 6.733C14.6077 6.733 16.8913 9.04703 16.8913 11.8914C16.8913 14.6984 14.6077 16.982 11.8008 16.982C8.99386 16.982 6.71023 14.6984 6.71023 11.8914Z" fill="#FFF5F4"/>
<path d="M23 11.8911C23 5.71376 17.9854 0.624023 11.8008 0.624023C5.96259 0.624023 0.601562 5.28819 0.601562 11.8911C0.601562 16.0079 4.63233 22.2291 7.02557 25.6475C4.36511 26.1822 0.601562 27.563 0.601562 30.285C0.601562 34.1776 7.85194 35.3755 11.8008 35.3755C15.75 35.3755 23 34.1775 23 30.285C23 27.5628 19.2361 26.1821 16.576 25.6475C18.9569 22.2467 23 16.0127 23 11.8911ZM2.63778 11.8911C2.63778 6.18949 7.39406 2.66024 11.8008 2.66024C16.8533 2.66024 20.9638 6.80117 20.9638 11.8911C20.9638 16.2027 14.9391 24.7018 11.8007 28.6658C8.66201 24.7026 2.63778 16.2054 2.63778 11.8911ZM20.9638 30.285C20.9638 31.986 15.9777 33.3393 11.8008 33.3393C7.62945 33.3393 2.63778 31.9849 2.63778 30.285C2.63778 29.4746 4.45654 28.0698 8.34463 27.483C9.82958 29.4981 10.9473 30.8506 11.0169 30.9346C11.2103 31.168 11.4977 31.3031 11.8008 31.3031C12.1039 31.3031 12.3913 31.168 12.5847 30.9346C12.6543 30.8506 13.772 29.4981 15.2569 27.483C19.145 28.0698 20.9638 29.4746 20.9638 30.285Z" fill="#FFF5F4"/>
</svg>
