<svg width="23" height="18" viewBox="0 0 23 18" fill="none" xmlns="http://www.w3.org/2000/svg">
<path d="M21.0833 0H1.91668C0.85958 0 0 0.85958 0 1.91668V15.3334C0 16.3904 0.85958 17.25 1.91668 17.25H21.0834C22.1404 17.25 23 16.3904 23 15.3333V1.91668C23 0.85958 22.1404 0 21.0833 0ZM1.91668 0.958318H21.0834C21.154 0.958318 21.2162 0.984059 21.2825 0.998613C19.6231 2.51729 14.1209 7.55087 12.1954 9.28571C12.0447 9.42142 11.8019 9.58332 11.5 9.58332C11.1982 9.58332 10.9554 9.42142 10.8042 9.28526C8.8789 7.55069 3.37637 2.51684 1.71727 0.998703C1.78367 0.984149 1.84602 0.958318 1.91668 0.958318ZM0.958318 15.3333V1.91668C0.958318 1.82279 0.986619 1.73762 1.01196 1.65182C2.28199 2.81422 6.12119 6.32639 8.61058 8.59014C6.12928 10.7215 2.28908 14.3624 1.00895 15.5831C0.98635 15.5016 0.958318 15.4219 0.958318 15.3333ZM21.0833 16.2917H1.91668C1.84013 16.2917 1.77208 16.265 1.70061 16.2479C3.02342 14.9869 6.88805 11.3251 9.32574 9.23971C9.64351 9.52797 9.9338 9.79081 10.1626 9.997C10.5576 10.3536 11.0199 10.5417 11.5 10.5417C11.9801 10.5417 12.4424 10.3535 12.8369 9.99745C13.0658 9.79117 13.3563 9.52811 13.6743 9.23971C16.1121 11.3249 19.9762 14.9864 21.2994 16.2479C21.2279 16.265 21.16 16.2917 21.0833 16.2917ZM22.0417 15.3333C22.0417 15.4219 22.0136 15.5016 21.9911 15.5831C20.7105 14.3617 16.8707 10.7213 14.3895 8.59019C16.8789 6.32644 20.7176 2.81458 21.988 1.65173C22.0134 1.73753 22.0417 1.82275 22.0417 1.91664V15.3333Z" fill="#FFF5F4"/>
</svg>
