<svg width="18" height="13" viewBox="0 0 18 13" fill="none" xmlns="http://www.w3.org/2000/svg">
<path d="M15.8889 0H1.44446C0.6478 0 0 0.6478 0 1.44446V11.5556C0 12.3522 0.6478 13 1.44446 13H15.8889C16.6855 13 17.3333 12.3522 17.3333 11.5555V1.44446C17.3333 0.6478 16.6855 0 15.8889 0ZM1.44446 0.722211H15.8889C15.9421 0.722211 15.989 0.74161 16.039 0.752578C14.7884 1.89709 10.6418 5.69051 9.19073 6.99793C9.07718 7.1002 8.89417 7.22221 8.6667 7.22221C8.43923 7.22221 8.25622 7.1002 8.1423 6.99759C6.69134 5.69038 2.54451 1.89675 1.29418 0.752646C1.34421 0.741677 1.3912 0.722211 1.44446 0.722211ZM0.722211 11.5555V1.44446C0.722211 1.3737 0.743539 1.30951 0.762633 1.24485C1.71976 2.12086 4.61307 4.76772 6.48913 6.47373C4.61916 8.08001 1.72511 10.8238 0.760365 11.7438C0.743336 11.6824 0.722211 11.6223 0.722211 11.5555ZM15.8889 12.2778H1.44446C1.38677 12.2778 1.33548 12.2577 1.28162 12.2448C2.27852 11.2945 5.19099 8.53487 7.02809 6.96326C7.26758 7.1805 7.48634 7.37858 7.65879 7.53397C7.95644 7.80271 8.30483 7.94446 8.66667 7.94446C9.0285 7.94446 9.37689 7.80267 9.67417 7.53431C9.84669 7.37885 10.0656 7.1806 10.3052 6.96326C12.1424 8.5347 15.0545 11.2941 16.0517 12.2448C15.9979 12.2577 15.9466 12.2778 15.8889 12.2778ZM16.6111 11.5555C16.6111 11.6223 16.59 11.6824 16.573 11.7438C15.6079 10.8233 12.7142 8.07984 10.8442 6.47376C12.7204 4.76775 15.6132 2.12113 16.5707 1.24478C16.5898 1.30945 16.6111 1.37367 16.6111 1.44442V11.5555Z" fill="#BA5EFF"/>
</svg>
