<svg width="25" height="25" viewBox="0 0 25 25" fill="none" xmlns="http://www.w3.org/2000/svg">
<circle cx="12.5" cy="12.5" r="12.5" fill="white"/>
<path d="M12.5118 10.36C13.7054 10.3556 14.656 9.39682 14.6517 8.20065C14.6473 7.00398 13.6946 6.05181 12.5005 6.05078C11.2964 6.0495 10.3348 7.01932 10.344 8.22674C10.353 9.41856 11.3143 10.3643 12.5118 10.36Z" fill="url(#paint0_linear)"/>
<path d="M12.5 0C5.59642 0 0 5.59667 0 12.5C0 19.4033 5.59642 25 12.5 25C19.4036 25 25 19.4033 25 12.5C25 5.59667 19.4036 0 12.5 0ZM12.5179 3.80128C14.9527 3.80793 16.9069 5.79949 16.8944 8.26112C16.8821 10.666 14.8959 12.6151 12.4652 12.6069C10.0593 12.5987 8.08619 10.6041 8.10051 8.19437C8.11407 5.75831 10.0882 3.79463 12.5179 3.80128ZM17.4494 14.3368C16.911 14.8895 16.2629 15.2895 15.5432 15.5685C14.8629 15.8322 14.1174 15.965 13.3793 16.0535C13.491 16.1747 13.5435 16.2343 13.613 16.3038C14.6146 17.3107 15.621 18.3125 16.6192 19.3223C16.9593 19.6665 17.0302 20.0931 16.843 20.4928C16.6386 20.9302 16.1801 21.2176 15.7302 21.1867C15.4453 21.167 15.223 21.0256 15.0258 20.8269C14.2698 20.0662 13.4995 19.3192 12.7593 18.5442C12.5432 18.3187 12.4399 18.3616 12.2494 18.5575C11.489 19.3407 10.7161 20.1113 9.93887 20.8778C9.58977 21.222 9.17442 21.2844 8.76931 21.0875C8.33887 20.8793 8.06522 20.4396 8.08619 19.9974C8.10102 19.6992 8.24783 19.4706 8.45294 19.2665C9.4445 18.277 10.433 17.2844 11.4217 16.2926C11.4875 16.2269 11.5483 16.157 11.6437 16.0547C10.2951 15.9138 9.07903 15.5818 8.03785 14.7678C7.90844 14.6665 7.77519 14.5688 7.65754 14.4552C7.20153 14.0176 7.15575 13.5161 7.51611 13C7.82481 12.5581 8.34245 12.4399 8.88082 12.6939C8.98517 12.7427 9.0844 12.8046 9.17954 12.8701C11.1197 14.2033 13.7852 14.2399 15.733 12.9297C15.9258 12.7824 16.1322 12.6611 16.3714 12.6C16.8358 12.4803 17.2696 12.6514 17.5187 13.0581C17.8038 13.5228 17.8005 13.976 17.4494 14.3368Z" fill="url(#paint1_linear)"/>
<defs>
<linearGradient id="paint0_linear" x1="12.506" y1="10.36" x2="12.5114" y2="6.05078" gradientUnits="userSpaceOnUse">
<stop stop-color="#BA5EFF"/>
<stop offset="1" stop-color="#D092FF"/>
</linearGradient>
<linearGradient id="paint1_linear" x1="12.5475" y1="25" x2="12.5786" y2="1.66913e-05" gradientUnits="userSpaceOnUse">
<stop stop-color="#BA5EFF"/>
<stop offset="1" stop-color="#D092FF"/>
</linearGradient>
</defs>
</svg>
