<svg width="10" height="10" viewBox="0 0 10 10" fill="none" xmlns="http://www.w3.org/2000/svg">
<path d="M9.74294 7.37565L8.49974 6.1325C8.15699 5.78979 7.59927 5.78979 7.25654 6.1325L6.69145 6.69756C6.4318 6.95721 6.00928 6.95713 5.74971 6.69766L3.30039 4.24635C3.04012 3.9861 3.04008 3.56487 3.30039 3.30457C3.39141 3.21356 3.65277 2.95221 3.86547 2.73951C4.20672 2.3983 4.21148 1.84235 3.86514 1.49606L2.62227 0.257149C2.27952 -0.0855664 1.72182 -0.0855663 1.37999 0.25625C1.1242 0.509805 1.04169 0.591602 0.927001 0.705294C-0.308991 1.94121 -0.308991 3.95221 0.926943 5.18809L4.80782 9.07083C6.0467 10.3097 8.05187 10.3098 9.29085 9.07083L9.74294 8.61878C10.0857 8.27604 10.0857 7.71838 9.74294 7.37565ZM1.79348 0.671524C1.90773 0.557286 2.0936 0.557266 2.20821 0.671836L3.45108 1.91074C3.56559 2.02526 3.56559 2.21059 3.45108 2.32512L3.24386 2.53231L1.58734 0.87586L1.79348 0.671524ZM5.22229 8.65651L1.34139 4.77373C0.385141 3.81752 0.332581 2.31606 1.17975 1.29705L2.83146 2.94869C2.39746 3.44067 2.41554 4.19034 2.8859 4.66067L5.33514 7.11186C5.33516 7.11188 5.3352 7.11192 5.33522 7.11194C5.80507 7.58178 6.55473 7.60104 7.04733 7.16647L8.69908 8.81815C7.68328 9.66382 6.18512 9.6193 5.22229 8.65651ZM9.32856 8.2044L9.12135 8.41161L7.46376 6.75407L7.67093 6.54688C7.78519 6.43264 7.97108 6.43262 8.08535 6.54688L9.32854 7.79003C9.44281 7.90428 9.44281 8.09018 9.32856 8.2044Z" fill="#BA5EFF"/>
</svg>
