<svg width="23" height="23" viewBox="0 0 23 23" fill="none" xmlns="http://www.w3.org/2000/svg">
<path d="M22.4088 16.964L19.5494 14.1048C18.7611 13.3165 17.4783 13.3165 16.69 14.1048L15.3903 15.4044C14.7931 16.0016 13.8213 16.0014 13.2243 15.4046L7.59089 9.76661C6.99228 9.16802 6.99219 8.19919 7.59089 7.60052C7.80024 7.39118 8.40136 6.79008 8.89058 6.30088C9.67545 5.5161 9.68641 4.23739 8.88982 3.44093L6.03123 0.591442C5.2429 -0.196803 3.96019 -0.196803 3.17398 0.589376C2.58565 1.17255 2.3959 1.36068 2.1321 1.62218C-0.710679 4.46479 -0.710679 9.09008 2.13197 11.9326L11.058 20.8629C13.9074 23.7123 18.5193 23.7125 21.3689 20.8629L22.4088 19.8232C23.1971 19.0349 23.1971 17.7523 22.4088 16.964ZM4.12502 1.54451C4.38777 1.28176 4.81527 1.28171 5.07888 1.54522L7.93748 4.39471C8.20087 4.65809 8.20087 5.08435 7.93748 5.34777L7.46088 5.82431L3.65089 2.01448L4.12502 1.54451ZM12.0113 19.91L3.08521 10.9796C0.885825 8.7803 0.764935 5.32693 2.71342 2.98322L6.51236 6.782C5.51415 7.91353 5.55575 9.63777 6.63756 10.7195L12.2708 16.3573C12.2709 16.3573 12.271 16.3574 12.271 16.3575C13.3517 17.4381 15.0759 17.4824 16.2089 16.4829L20.0079 20.2817C17.6715 22.2268 14.2258 22.1244 12.0113 19.91ZM21.4557 18.8701L20.9791 19.3467L17.1666 15.5344L17.6431 15.0578C17.9059 14.7951 18.3335 14.795 18.5963 15.0578L21.4557 17.9171C21.7185 18.1799 21.7185 18.6074 21.4557 18.8701Z" fill="#FFF5F4"/>
</svg>
