<svg width="23" height="23" viewBox="0 0 23 23" fill="none" xmlns="http://www.w3.org/2000/svg">
<path d="M11.5 0C5.15901 0 0 5.15901 0 11.5C0 17.841 5.15901 23 11.5 23C17.841 23 23 17.841 23 11.5C23 5.15901 17.841 0 11.5 0ZM11.5 21.5625C5.95144 21.5625 1.43751 17.0486 1.43751 11.5C1.43751 5.95144 5.95144 1.43751 11.5 1.43751C17.0486 1.43751 21.5625 5.95144 21.5625 11.5C21.5625 17.0486 17.0486 21.5625 11.5 21.5625Z" fill="#FFF5F4"/>
<path d="M12.2188 4.3125H10.7812V11.7976L15.3043 16.3207L16.3207 15.3043L12.2188 11.2024V4.3125Z" fill="#FFF5F4"/>
</svg>
