<svg width="45" height="45" viewBox="0 0 45 45" fill="none" xmlns="http://www.w3.org/2000/svg">
<path d="M39.5554 17.1387C39.8372 17.4209 40.2199 17.5791 40.6187 17.5791C41.0176 17.5791 41.4002 17.4209 41.682 17.1387L44.3393 14.4814C44.7626 14.0582 45 13.4845 45 12.8864C45 12.2884 44.7626 11.7147 44.3393 11.2918L33.7085 0.660702C33.2856 0.237784 32.712 0 32.1136 0C31.5155 0 30.9418 0.237784 30.5189 0.660702L27.8613 3.31796C27.5795 3.60014 27.4209 3.98245 27.4209 4.38128C27.4209 4.78011 27.5795 5.16277 27.8613 5.4446L22.5 10.8021L17.1387 5.4446C17.4209 5.16277 17.5795 4.78011 17.5795 4.38128C17.5795 3.98245 17.4209 3.60014 17.1387 3.31796L14.4814 0.660702C14.0585 0.237784 13.4849 0 12.8864 0C12.2884 0 11.7147 0.237784 11.2918 0.660702L0.660702 11.2918C0.237784 11.7147 0 12.2884 0 12.8864C0 13.4845 0.237784 14.0582 0.660702 14.4814L3.31831 17.1387C3.60014 17.4209 3.98279 17.5791 4.38162 17.5791C4.78045 17.5791 5.16277 17.4209 5.44494 17.1387L15.0582 26.7557L4.31659 37.4942C3.8042 37.362 3.25981 37.5041 2.87784 37.8699L0.220234 40.5272C-0.0732966 40.8207 -0.0732966 41.2966 0.220234 41.5902L3.40606 44.7798C3.54714 44.9209 3.73847 45.0003 3.93806 45.0003C4.13765 45.0003 4.32897 44.9209 4.46972 44.7798L7.13111 42.1201C7.51549 41.7447 7.66311 41.1882 7.51514 40.6717L18.3438 29.8465L22.4917 29.0196L26.6566 29.8465L37.4814 40.6717C37.3335 41.1882 37.4811 41.7443 37.8655 42.1194L40.5237 44.7777C40.6648 44.9188 40.8562 44.9979 41.0554 44.9979C41.255 44.9979 41.4463 44.9188 41.5874 44.7777L44.7801 41.5939C45.0733 41.3004 45.0733 40.8245 44.7801 40.531L42.1204 37.8692C41.7378 37.5038 41.1937 37.3617 40.6817 37.4931L29.9422 26.7557L39.5554 17.138V17.1387ZM31.5819 1.72368C31.7226 1.58259 31.914 1.5031 32.1136 1.5031C32.3131 1.5031 32.5045 1.58259 32.6456 1.72368L43.2767 12.3555C43.5695 12.6487 43.5695 13.1242 43.2767 13.4174L40.617 16.0757L40.096 15.5554C40.096 15.5509 40.0905 15.5451 40.086 15.5413C40.0816 15.5375 40.0764 15.5358 40.0726 15.5313L29.4663 4.92361C29.4663 4.92361 29.4628 4.91535 29.4591 4.91259C29.4553 4.9095 29.4508 4.90812 29.447 4.90434L28.9205 4.37784L28.3892 4.9095L31.5819 1.72368ZM28.926 21.3933L28.756 21.2237L27.8541 16.6958C27.7663 16.2602 27.5544 15.8589 27.2436 15.5413L25.6906 13.9904L31.0475 8.63352L36.3665 13.9529L28.926 21.3933ZM24.6277 15.0533L26.1693 16.595C26.2763 16.7051 26.3489 16.8438 26.3782 16.9942L26.8407 19.308L23.6081 16.0757L24.6277 15.0533ZM21.4381 11.8651L20.3734 12.9288L15.0145 7.56917L16.075 6.50826L21.4381 11.8651ZM17.148 16.6996L16.2457 21.222L16.0757 21.3919L8.63352 13.9498L13.9529 8.63042L19.3104 13.988L17.7509 15.5471C17.4425 15.8648 17.233 16.2653 17.148 16.6996ZM1.72368 13.4174C1.43014 13.1239 1.43014 12.6483 1.72368 12.3544L12.3517 1.72368C12.4928 1.58259 12.6841 1.5031 12.8837 1.5031C13.0833 1.5031 13.2746 1.58259 13.4153 1.72368L16.0767 4.38335L15.5502 4.9095C15.5461 4.91191 15.5423 4.91466 15.5382 4.91776C15.5382 4.91776 15.5337 4.92602 15.531 4.92911L4.92533 15.5313C4.92154 15.5358 4.91569 15.5368 4.91191 15.5413C4.90812 15.5458 4.90571 15.5509 4.90193 15.5554L4.38128 16.0757L1.72368 13.4174ZM7.56917 15.0141L15.5375 22.9825C15.6253 23.0668 15.733 23.128 15.8503 23.16L15.4745 25.0461L6.50792 16.075L7.56917 15.0141ZM3.9415 43.1855L1.81487 41.0588L3.9415 38.9322L6.06813 41.0588L3.9415 43.1855ZM28.765 27.6996L39.4646 38.4006L38.9329 38.9329L38.4009 39.4642L27.5578 28.6204C27.5379 28.606 27.5176 28.5922 27.4962 28.5798C27.4597 28.5513 27.4209 28.5262 27.3796 28.5048C27.3321 28.4787 27.2815 28.4577 27.2292 28.4425C27.2103 28.4332 27.1906 28.4253 27.1707 28.4184L26.3266 28.2498L28.3028 27.8544C28.4618 27.8197 28.6167 27.7684 28.765 27.7013V27.6996ZM43.1855 41.0588L41.0588 43.1855L38.9322 41.0588L41.0588 38.9322L43.1855 41.0588ZM28.405 26.1683C28.2949 26.2763 28.1555 26.3493 28.0045 26.3789L17.8283 28.416C17.808 28.4229 17.7887 28.4312 17.7694 28.4401C17.7171 28.4556 17.6669 28.4763 17.6191 28.5024C17.5781 28.5237 17.5389 28.5492 17.5028 28.5778C17.4814 28.5902 17.4608 28.6036 17.4408 28.6184L6.59945 39.4642L5.53579 38.4006L16.3796 27.5578C16.3975 27.5389 16.4043 27.5155 16.4202 27.4959C16.4563 27.4535 16.4873 27.4071 16.5127 27.3575C16.5327 27.3187 16.5492 27.278 16.5616 27.2361C16.5688 27.2127 16.5826 27.1931 16.5877 27.169L18.6211 16.9979C18.649 16.8503 18.7185 16.7137 18.8217 16.6043L28.9253 6.50826L29.9859 7.56917L22.0175 15.5375C21.8758 15.6786 21.7959 15.8703 21.7959 16.0705C21.7959 16.2705 21.8758 16.4621 22.0175 16.6032L28.3961 22.9818C28.5365 23.1232 28.7278 23.2027 28.9274 23.202C29.1266 23.202 29.318 23.1229 29.4591 22.9818L37.4312 15.0134L38.4924 16.0743L28.405 26.1683Z" fill="#FFF5F4"/>
<path d="M27.2887 24.5874C27.3042 24.5372 27.3142 24.4852 27.3187 24.4326C27.3231 24.3868 27.3231 24.3404 27.3187 24.2942C27.32 24.2695 27.32 24.2444 27.3187 24.2192C27.3107 24.1958 27.3011 24.1731 27.2901 24.1508C27.2767 24.1057 27.2588 24.0623 27.2368 24.0207C27.2123 23.9725 27.182 23.9274 27.1473 23.8861C27.1332 23.8696 27.1277 23.8486 27.1122 23.8328L21.169 17.8896C21.1504 17.8761 21.1315 17.8634 21.1118 17.8521C21.0719 17.8187 21.0286 17.7901 20.9825 17.7664C20.9412 17.7437 20.8975 17.7251 20.8524 17.7113C20.8276 17.7041 20.8087 17.6876 20.7832 17.6821C20.7571 17.6807 20.7306 17.6807 20.7044 17.6821C20.6593 17.6776 20.6139 17.6776 20.5688 17.6821C20.5141 17.6865 20.4604 17.6969 20.4081 17.7137C20.3734 17.7251 20.3393 17.7392 20.3066 17.7557C20.2498 17.7836 20.1972 17.819 20.1494 17.8603C20.1359 17.8724 20.1187 17.8761 20.106 17.8889C20.0933 17.9016 20.0895 17.9181 20.0781 17.9309C20.0379 17.978 20.0034 18.0296 19.9759 18.085C19.9573 18.1208 19.9419 18.158 19.9291 18.1965C19.9174 18.2206 19.9071 18.2457 19.8985 18.2715L18.4098 25.7075C18.3665 25.9285 18.424 26.1569 18.5664 26.3307C18.7092 26.5045 18.9226 26.6053 19.1473 26.6053C19.1979 26.6057 19.2485 26.6009 19.2977 26.5902L26.7323 25.1026C26.7567 25.094 26.7808 25.084 26.8039 25.0723C26.8455 25.0596 26.8858 25.0427 26.924 25.0221C26.9756 24.9962 27.0238 24.9642 27.0678 24.9274C27.0826 24.9137 27.1015 24.9092 27.1156 24.8951C27.1301 24.8806 27.1352 24.8603 27.149 24.8448C27.1869 24.8004 27.2189 24.7516 27.245 24.6996C27.2626 24.6635 27.277 24.626 27.2887 24.5874ZM21.0967 19.9443L25.0561 23.9026L20.1015 24.8958L21.0967 19.9443Z" fill="#FFF5F4"/>
</svg>
