<svg width="45" height="43" viewBox="0 0 45 43" fill="none" xmlns="http://www.w3.org/2000/svg">
<path d="M44.9455 24.0065C44.613 21.7027 42.8031 19.8929 40.4994 19.5603V18.1969C40.4994 14.4349 37.6397 11.372 34.1245 11.372C30.7105 11.372 27.8523 14.3419 27.7496 17.9929H27.7931L27.7496 18.0004V32.7804C27.7496 37.5053 24.2171 41.3423 19.8747 41.3423C15.5323 41.3423 11.9998 37.5001 11.9998 32.7804V31.5002C13.0873 31.5002 14.2498 30.7119 14.2498 28.5002V26.614C19.0632 25.3833 22.4996 21.2501 22.4996 16.5641V15.0004H20.9997L20.9682 5.23932C20.9573 3.4325 19.6608 1.88978 17.8827 1.56813C17.4992 0.393177 16.2357 -0.248438 15.0607 0.135181C13.8857 0.518706 13.2441 1.78215 13.6278 2.9572C14.0113 4.13215 15.2747 4.77376 16.4498 4.39015C17.0789 4.18474 17.5849 3.71141 17.8317 3.09735C18.7925 3.37072 19.4582 4.24484 19.4659 5.24382L19.4997 15.0004H17.9997V16.5859C17.9399 19.1946 16.1909 21.4617 13.6828 22.1816C12.3408 22.6074 10.8999 22.6074 9.55785 22.1816C7.05261 21.4592 5.30757 19.1926 5.24992 16.5859V15.0004H2.99995V5.25057C3.00427 4.23687 3.686 3.35113 4.66493 3.0876C5.12139 4.24962 6.4334 4.82148 7.59541 4.36502C8.75742 3.90856 9.32929 2.59645 8.87283 1.43454C8.41637 0.272616 7.10426 -0.299344 5.94234 0.157118C5.31273 0.40452 4.82692 0.920793 4.61843 1.56438C2.82099 1.8715 1.50495 3.42707 1.49998 5.25057V15.0004H0V16.5604C0 21.2516 3.4387 25.3863 8.24987 26.614V28.5002C8.24987 30.7119 9.41235 31.5002 10.4998 31.5002V32.7804C10.4998 38.3303 14.705 42.8422 19.8747 42.8422C25.0444 42.8422 29.2495 38.3251 29.2495 32.7804V18.0364C29.3245 15.1902 31.513 12.8742 34.1245 12.8742C36.8124 12.8742 38.9994 15.2622 38.9994 18.1991V19.5603C36.1297 19.9745 34.1391 22.6367 34.5533 25.5064C34.9674 28.3762 37.6296 30.3667 40.4994 29.9526C43.3691 29.5384 45.3597 26.8761 44.9455 24.0065ZM15.7498 3.0006C15.3356 3.0006 14.9998 2.6648 14.9998 2.25062C14.9998 1.83644 15.3356 1.50063 15.7498 1.50063C16.1639 1.50063 16.4997 1.83644 16.4997 2.25062C16.4997 2.6648 16.1639 3.0006 15.7498 3.0006ZM6.74989 1.50063C7.16407 1.50063 7.49988 1.83644 7.49988 2.25062C7.49988 2.6648 7.16407 3.0006 6.74989 3.0006C6.33571 3.0006 5.99991 2.6648 5.99991 2.25062C5.99991 1.83644 6.33571 1.50063 6.74989 1.50063ZM1.49998 16.5604V16.5004H3.74994V16.5859C3.80619 19.8456 5.97487 22.6904 9.10336 23.608C10.7427 24.1271 12.5024 24.1271 14.1418 23.608C17.2718 22.6916 19.4424 19.8467 19.4997 16.5859V16.5004H20.9997V16.5604C20.9997 20.7326 17.7837 24.4038 13.3498 25.2918C12.3086 25.5002 11.2421 25.5526 10.1856 25.447C9.83778 25.4133 9.49204 25.3609 9.14986 25.2903C4.71593 24.4038 1.49998 20.7326 1.49998 16.5604ZM10.4998 30.0002C9.82485 30.0002 9.74985 28.9502 9.74985 28.5002V26.9087C9.80985 26.9162 9.87134 26.9192 9.93209 26.9252C10.0071 26.9335 10.0821 26.9395 10.1571 26.9462C10.5118 26.9777 10.8696 26.9987 11.2303 26.9995H11.2678C11.6278 26.9995 11.9848 26.9777 12.3373 26.9462C12.4123 26.9395 12.4918 26.9335 12.5691 26.9252C12.6283 26.9185 12.6898 26.9162 12.7491 26.9087V28.5002C12.7491 28.9502 12.6741 30.0002 11.9991 30.0002H10.4998ZM39.7494 28.5002C37.6784 28.5002 35.9994 26.8213 35.9994 24.7503C35.9994 22.6793 37.6784 21.0003 39.7494 21.0003C41.8204 21.0003 43.4993 22.6793 43.4993 24.7503C43.4969 26.8203 41.8193 28.4978 39.7494 28.5002Z" fill="#FFF5F4"/>
</svg>
